<svg width="1034" height="436" viewBox="0 0 1034 436" fill="none" xmlns="http://www.w3.org/2000/svg">
<rect x="27" y="1" width="1006" height="462" rx="9" fill="white" stroke="#EAEAEA" stroke-width="2"/>
<line x1="28" y1="81" x2="1034" y2="81" stroke="#ECECEC" stroke-width="2"/>
<line x1="28" y1="257" x2="1034" y2="257" stroke="#ECECEC" stroke-width="2"/>
<line x1="26" y1="169" x2="1032" y2="169" stroke="#ECECEC" stroke-width="2"/>
<line x1="26" y1="433" x2="1032" y2="433" stroke="#ECECEC" stroke-width="2"/>
<line x1="26" y1="345" x2="1032" y2="345" stroke="#ECECEC" stroke-width="2"/>
<line x1="170.5" y1="-2.18557e-08" x2="170.5" y2="445" stroke="#ECECEC"/>
<line x1="314.5" y1="-2.18557e-08" x2="314.5" y2="445" stroke="#ECECEC"/>
<line x1="746.5" y1="-2.18557e-08" x2="746.5" y2="445" stroke="#ECECEC"/>
<line x1="890.5" y1="-2.18557e-08" x2="890.5" y2="445" stroke="#ECECEC"/>
<line x1="602.5" y1="-2.18557e-08" x2="602.5" y2="445" stroke="#ECECEC"/>
<line x1="458.5" y1="-2.18557e-08" x2="458.5" y2="445" stroke="#ECECEC"/>
<path d="M86.256 23.098C85.6027 23.098 85.0147 22.986 84.492 22.762C83.9693 22.5287 83.5587 22.202 83.26 21.782C82.9613 21.362 82.812 20.872 82.812 20.312H84.52C84.5573 20.732 84.7207 21.0773 85.01 21.348C85.3087 21.6187 85.724 21.754 86.256 21.754C86.8067 21.754 87.236 21.6233 87.544 21.362C87.852 21.0913 88.006 20.746 88.006 20.326C88.006 19.9993 87.908 19.7333 87.712 19.528C87.5253 19.3227 87.2873 19.164 86.998 19.052C86.718 18.94 86.326 18.8187 85.822 18.688C85.1873 18.52 84.6693 18.352 84.268 18.184C83.876 18.0067 83.54 17.736 83.26 17.372C82.98 17.008 82.84 16.5227 82.84 15.916C82.84 15.356 82.98 14.866 83.26 14.446C83.54 14.026 83.932 13.704 84.436 13.48C84.94 13.256 85.5233 13.144 86.186 13.144C87.1287 13.144 87.8987 13.382 88.496 13.858C89.1027 14.3247 89.4387 14.9687 89.504 15.79H87.74C87.712 15.4353 87.544 15.132 87.236 14.88C86.928 14.628 86.522 14.502 86.018 14.502C85.5607 14.502 85.1873 14.6187 84.898 14.852C84.6087 15.0853 84.464 15.4213 84.464 15.86C84.464 16.1587 84.5527 16.406 84.73 16.602C84.9167 16.7887 85.15 16.938 85.43 17.05C85.71 17.162 86.0927 17.2833 86.578 17.414C87.222 17.5913 87.7447 17.7687 88.146 17.946C88.5567 18.1233 88.902 18.3987 89.182 18.772C89.4713 19.136 89.616 19.626 89.616 20.242C89.616 20.7367 89.4807 21.2033 89.21 21.642C88.9487 22.0807 88.5613 22.4353 88.048 22.706C87.544 22.9673 86.9467 23.098 86.256 23.098ZM98.4852 15.286V23H96.8892V22.09C96.6372 22.4073 96.3059 22.6593 95.8952 22.846C95.4939 23.0233 95.0646 23.112 94.6072 23.112C94.0006 23.112 93.4546 22.986 92.9692 22.734C92.4932 22.482 92.1152 22.1087 91.8352 21.614C91.5646 21.1193 91.4292 20.522 91.4292 19.822V15.286H93.0112V19.584C93.0112 20.2747 93.1839 20.8067 93.5292 21.18C93.8746 21.544 94.3459 21.726 94.9432 21.726C95.5406 21.726 96.0119 21.544 96.3572 21.18C96.7119 20.8067 96.8892 20.2747 96.8892 19.584V15.286H98.4852ZM104.483 15.16C105.09 15.16 105.631 15.286 106.107 15.538C106.592 15.79 106.97 16.1633 107.241 16.658C107.512 17.1527 107.647 17.75 107.647 18.45V23H106.065V18.688C106.065 17.9973 105.892 17.47 105.547 17.106C105.202 16.7327 104.73 16.546 104.133 16.546C103.536 16.546 103.06 16.7327 102.705 17.106C102.36 17.47 102.187 17.9973 102.187 18.688V23H100.591V15.286H102.187V16.168C102.448 15.8507 102.78 15.6033 103.181 15.426C103.592 15.2487 104.026 15.16 104.483 15.16Z" fill="#848484"/>
<path d="M94.848 56.248C95.008 57.048 95.352 57.656 95.88 58.072C96.408 58.488 97.12 58.696 98.016 58.696C99.152 58.696 99.984 58.248 100.512 57.352C101.04 56.456 101.304 54.928 101.304 52.768C100.92 53.312 100.376 53.736 99.672 54.04C98.984 54.328 98.232 54.472 97.416 54.472C96.376 54.472 95.432 54.264 94.584 53.848C93.736 53.416 93.064 52.784 92.568 51.952C92.088 51.104 91.848 50.08 91.848 48.88C91.848 47.12 92.36 45.72 93.384 44.68C94.424 43.624 95.848 43.096 97.656 43.096C99.832 43.096 101.376 43.824 102.288 45.28C103.216 46.72 103.68 48.936 103.68 51.928C103.68 53.992 103.504 55.68 103.152 56.992C102.816 58.304 102.224 59.296 101.376 59.968C100.528 60.64 99.352 60.976 97.848 60.976C96.136 60.976 94.816 60.528 93.888 59.632C92.96 58.736 92.44 57.608 92.328 56.248H94.848ZM97.896 52.168C98.856 52.168 99.608 51.872 100.152 51.28C100.712 50.672 100.992 49.872 100.992 48.88C100.992 47.776 100.696 46.92 100.104 46.312C99.528 45.688 98.736 45.376 97.728 45.376C96.72 45.376 95.92 45.696 95.328 46.336C94.752 46.96 94.464 47.784 94.464 48.808C94.464 49.784 94.744 50.592 95.304 51.232C95.88 51.856 96.744 52.168 97.896 52.168Z" fill="#4B4B4B"/>
<path d="M239.298 13.27V23H237.702V16.336L234.734 23H233.628L230.646 16.336V23H229.05V13.27H230.772L234.188 20.9L237.59 13.27H239.298ZM244.742 23.126C244.014 23.126 243.356 22.9627 242.768 22.636C242.18 22.3 241.718 21.8333 241.382 21.236C241.046 20.6293 240.878 19.9293 240.878 19.136C240.878 18.352 241.05 17.6567 241.396 17.05C241.741 16.4433 242.212 15.9767 242.81 15.65C243.407 15.3233 244.074 15.16 244.812 15.16C245.549 15.16 246.216 15.3233 246.814 15.65C247.411 15.9767 247.882 16.4433 248.228 17.05C248.573 17.6567 248.746 18.352 248.746 19.136C248.746 19.92 248.568 20.6153 248.214 21.222C247.859 21.8287 247.374 22.3 246.758 22.636C246.151 22.9627 245.479 23.126 244.742 23.126ZM244.742 21.74C245.152 21.74 245.535 21.642 245.89 21.446C246.254 21.25 246.548 20.956 246.772 20.564C246.996 20.172 247.108 19.696 247.108 19.136C247.108 18.576 247 18.1047 246.786 17.722C246.571 17.33 246.286 17.036 245.932 16.84C245.577 16.644 245.194 16.546 244.784 16.546C244.373 16.546 243.99 16.644 243.636 16.84C243.29 17.036 243.015 17.33 242.81 17.722C242.604 18.1047 242.502 18.576 242.502 19.136C242.502 19.9667 242.712 20.6107 243.132 21.068C243.561 21.516 244.098 21.74 244.742 21.74ZM254.215 15.16C254.822 15.16 255.363 15.286 255.839 15.538C256.325 15.79 256.703 16.1633 256.973 16.658C257.244 17.1527 257.379 17.75 257.379 18.45V23H255.797V18.688C255.797 17.9973 255.625 17.47 255.279 17.106C254.934 16.7327 254.463 16.546 253.865 16.546C253.268 16.546 252.792 16.7327 252.437 17.106C252.092 17.47 251.919 17.9973 251.919 18.688V23H250.323V15.286H251.919V16.168C252.181 15.8507 252.512 15.6033 252.913 15.426C253.324 15.2487 253.758 15.16 254.215 15.16Z" fill="#848484"/>
<path d="M234.08 46V43.504H239.072V61H236.312V46H234.08ZM242.831 52.024C242.831 49.256 243.295 47.096 244.223 45.544C245.167 43.976 246.783 43.192 249.071 43.192C251.359 43.192 252.967 43.976 253.895 45.544C254.839 47.096 255.311 49.256 255.311 52.024C255.311 54.824 254.839 57.016 253.895 58.6C252.967 60.168 251.359 60.952 249.071 60.952C246.783 60.952 245.167 60.168 244.223 58.6C243.295 57.016 242.831 54.824 242.831 52.024ZM252.623 52.024C252.623 50.728 252.535 49.632 252.359 48.736C252.199 47.84 251.863 47.112 251.351 46.552C250.839 45.976 250.079 45.688 249.071 45.688C248.063 45.688 247.303 45.976 246.791 46.552C246.279 47.112 245.935 47.84 245.759 48.736C245.599 49.632 245.519 50.728 245.519 52.024C245.519 53.368 245.599 54.496 245.759 55.408C245.919 56.32 246.255 57.056 246.767 57.616C247.295 58.176 248.063 58.456 249.071 58.456C250.079 58.456 250.839 58.176 251.351 57.616C251.879 57.056 252.223 56.32 252.383 55.408C252.543 54.496 252.623 53.368 252.623 52.024Z" fill="#4B4B4B"/>
<circle cx="671" cy="53" r="24" fill="#61B4F1"/>
<path d="M664.336 13.27V14.572H661.746V23H660.15V14.572H657.546V13.27H664.336ZM669.942 15.16C670.53 15.16 671.053 15.286 671.51 15.538C671.977 15.79 672.341 16.1633 672.602 16.658C672.873 17.1527 673.008 17.75 673.008 18.45V23H671.426V18.688C671.426 17.9973 671.254 17.47 670.908 17.106C670.563 16.7327 670.092 16.546 669.494 16.546C668.897 16.546 668.421 16.7327 668.066 17.106C667.721 17.47 667.548 17.9973 667.548 18.688V23H665.952V12.64H667.548V16.182C667.819 15.8553 668.16 15.6033 668.57 15.426C668.99 15.2487 669.448 15.16 669.942 15.16ZM682.03 15.286V23H680.434V22.09C680.182 22.4073 679.851 22.6593 679.44 22.846C679.039 23.0233 678.609 23.112 678.152 23.112C677.545 23.112 676.999 22.986 676.514 22.734C676.038 22.482 675.66 22.1087 675.38 21.614C675.109 21.1193 674.974 20.522 674.974 19.822V15.286H676.556V19.584C676.556 20.2747 676.729 20.8067 677.074 21.18C677.419 21.544 677.891 21.726 678.488 21.726C679.085 21.726 679.557 21.544 679.902 21.18C680.257 20.8067 680.434 20.2747 680.434 19.584V15.286H682.03Z" fill="#848484"/>
<path d="M661.08 46V43.504H666.072V61H663.312V46H661.08ZM669.783 47.824C669.879 46.336 670.447 45.176 671.487 44.344C672.543 43.512 673.887 43.096 675.519 43.096C676.639 43.096 677.607 43.296 678.423 43.696C679.239 44.096 679.855 44.64 680.271 45.328C680.687 46.016 680.895 46.792 680.895 47.656C680.895 48.648 680.631 49.496 680.103 50.2C679.575 50.904 678.943 51.376 678.207 51.616V51.712C679.151 52 679.887 52.528 680.415 53.296C680.943 54.048 681.207 55.016 681.207 56.2C681.207 57.144 680.991 57.984 680.559 58.72C680.127 59.456 679.487 60.04 678.639 60.472C677.791 60.888 676.775 61.096 675.591 61.096C673.863 61.096 672.439 60.656 671.319 59.776C670.215 58.88 669.623 57.6 669.543 55.936H672.183C672.247 56.784 672.575 57.48 673.167 58.024C673.759 58.552 674.559 58.816 675.567 58.816C676.543 58.816 677.295 58.552 677.823 58.024C678.351 57.48 678.615 56.784 678.615 55.936C678.615 54.816 678.255 54.024 677.535 53.56C676.831 53.08 675.743 52.84 674.271 52.84H673.647V50.584H674.295C675.591 50.568 676.575 50.352 677.247 49.936C677.935 49.52 678.279 48.864 678.279 47.968C678.279 47.2 678.031 46.592 677.535 46.144C677.039 45.68 676.335 45.448 675.423 45.448C674.527 45.448 673.831 45.68 673.335 46.144C672.839 46.592 672.543 47.152 672.447 47.824H669.783Z" fill="white"/>
<path d="M379.336 13.27V14.572H376.746V23H375.15V14.572H372.546V13.27H379.336ZM387.938 15.286V23H386.342V22.09C386.09 22.4073 385.759 22.6593 385.348 22.846C384.947 23.0233 384.518 23.112 384.06 23.112C383.454 23.112 382.908 22.986 382.422 22.734C381.946 22.482 381.568 22.1087 381.288 21.614C381.018 21.1193 380.882 20.522 380.882 19.822V15.286H382.464V19.584C382.464 20.2747 382.637 20.8067 382.982 21.18C383.328 21.544 383.799 21.726 384.396 21.726C384.994 21.726 385.465 21.544 385.81 21.18C386.165 20.8067 386.342 20.2747 386.342 19.584V15.286H387.938ZM397.114 18.954C397.114 19.2433 397.095 19.5047 397.058 19.738H391.164C391.211 20.354 391.439 20.8487 391.85 21.222C392.261 21.5953 392.765 21.782 393.362 21.782C394.221 21.782 394.827 21.4227 395.182 20.704H396.904C396.671 21.4133 396.246 21.9967 395.63 22.454C395.023 22.902 394.267 23.126 393.362 23.126C392.625 23.126 391.962 22.9627 391.374 22.636C390.795 22.3 390.338 21.8333 390.002 21.236C389.675 20.6293 389.512 19.9293 389.512 19.136C389.512 18.3427 389.671 17.6473 389.988 17.05C390.315 16.4433 390.767 15.9767 391.346 15.65C391.934 15.3233 392.606 15.16 393.362 15.16C394.09 15.16 394.739 15.3187 395.308 15.636C395.877 15.9533 396.321 16.4013 396.638 16.98C396.955 17.5493 397.114 18.2073 397.114 18.954ZM395.448 18.45C395.439 17.862 395.229 17.3907 394.818 17.036C394.407 16.6813 393.899 16.504 393.292 16.504C392.741 16.504 392.27 16.6813 391.878 17.036C391.486 17.3813 391.253 17.8527 391.178 18.45H395.448Z" fill="#848484"/>
<path d="M379.08 46V43.504H384.072V61H381.312V46H379.08ZM387.471 46V43.504H392.463V61H389.703V46H387.471Z" fill="#4B4B4B"/>
<path d="M525.72 13.27L522.836 23H521.03L518.986 15.636L516.816 23L515.024 23.014L512.266 13.27H513.96L515.976 21.194L518.16 13.27H519.952L521.982 21.152L524.012 13.27H525.72ZM534.106 18.954C534.106 19.2433 534.088 19.5047 534.05 19.738H528.156C528.203 20.354 528.432 20.8487 528.842 21.222C529.253 21.5953 529.757 21.782 530.354 21.782C531.213 21.782 531.82 21.4227 532.174 20.704H533.896C533.663 21.4133 533.238 21.9967 532.622 22.454C532.016 22.902 531.26 23.126 530.354 23.126C529.617 23.126 528.954 22.9627 528.366 22.636C527.788 22.3 527.33 21.8333 526.994 21.236C526.668 20.6293 526.504 19.9293 526.504 19.136C526.504 18.3427 526.663 17.6473 526.98 17.05C527.307 16.4433 527.76 15.9767 528.338 15.65C528.926 15.3233 529.598 15.16 530.354 15.16C531.082 15.16 531.731 15.3187 532.3 15.636C532.87 15.9533 533.313 16.4013 533.63 16.98C533.948 17.5493 534.106 18.2073 534.106 18.954ZM532.44 18.45C532.431 17.862 532.221 17.3907 531.81 17.036C531.4 16.6813 530.891 16.504 530.284 16.504C529.734 16.504 529.262 16.6813 528.87 17.036C528.478 17.3813 528.245 17.8527 528.17 18.45H532.44ZM535.145 19.108C535.145 18.3333 535.304 17.6473 535.621 17.05C535.948 16.4527 536.386 15.9907 536.937 15.664C537.497 15.328 538.118 15.16 538.799 15.16C539.303 15.16 539.798 15.272 540.283 15.496C540.778 15.7107 541.17 16 541.459 16.364V12.64H543.069V23H541.459V21.838C541.198 22.2113 540.834 22.5193 540.367 22.762C539.91 23.0047 539.382 23.126 538.785 23.126C538.113 23.126 537.497 22.958 536.937 22.622C536.386 22.2767 535.948 21.8007 535.621 21.194C535.304 20.578 535.145 19.8827 535.145 19.108ZM541.459 19.136C541.459 18.604 541.347 18.142 541.123 17.75C540.908 17.358 540.624 17.0593 540.269 16.854C539.914 16.6487 539.532 16.546 539.121 16.546C538.71 16.546 538.328 16.6487 537.973 16.854C537.618 17.05 537.329 17.344 537.105 17.736C536.89 18.1187 536.783 18.576 536.783 19.108C536.783 19.64 536.89 20.1067 537.105 20.508C537.329 20.9093 537.618 21.2173 537.973 21.432C538.337 21.6373 538.72 21.74 539.121 21.74C539.532 21.74 539.914 21.6373 540.269 21.432C540.624 21.2267 540.908 20.928 541.123 20.536C541.347 20.1347 541.459 19.668 541.459 19.136Z" fill="#848484"/>
<path d="M518.08 46V43.504H523.072V61H520.312V46H518.08ZM528.343 57.28C529.879 55.952 531.087 54.864 531.967 54.016C532.863 53.152 533.607 52.256 534.199 51.328C534.791 50.4 535.087 49.472 535.087 48.544C535.087 47.584 534.855 46.832 534.391 46.288C533.943 45.744 533.231 45.472 532.255 45.472C531.311 45.472 530.575 45.776 530.047 46.384C529.535 46.976 529.263 47.776 529.231 48.784H526.591C526.639 46.96 527.183 45.568 528.223 44.608C529.279 43.632 530.615 43.144 532.231 43.144C533.975 43.144 535.335 43.624 536.311 44.584C537.303 45.544 537.799 46.824 537.799 48.424C537.799 49.576 537.503 50.688 536.911 51.76C536.335 52.816 535.639 53.768 534.823 54.616C534.023 55.448 532.999 56.416 531.751 57.52L530.671 58.48H538.279V60.76H526.615V58.768L528.343 57.28Z" fill="#4B4B4B"/>
<path d="M816.776 13.27V14.572H812.646V17.442H815.866V18.744H812.646V23H811.05V13.27H816.776ZM819.851 16.406C820.084 16.014 820.392 15.7107 820.775 15.496C821.167 15.272 821.629 15.16 822.161 15.16V16.812H821.755C821.13 16.812 820.654 16.9707 820.327 17.288C820.01 17.6053 819.851 18.156 819.851 18.94V23H818.255V15.286H819.851V16.406ZM824.44 14.264C824.151 14.264 823.908 14.166 823.712 13.97C823.516 13.774 823.418 13.5313 823.418 13.242C823.418 12.9527 823.516 12.71 823.712 12.514C823.908 12.318 824.151 12.22 824.44 12.22C824.72 12.22 824.958 12.318 825.154 12.514C825.35 12.71 825.448 12.9527 825.448 13.242C825.448 13.5313 825.35 13.774 825.154 13.97C824.958 14.166 824.72 14.264 824.44 14.264ZM825.224 15.286V23H823.628V15.286H825.224Z" fill="#848484"/>
<path d="M808.08 46V43.504H813.072V61H810.312V46H808.08ZM816.495 57.352V55.288L824.559 43.72H827.871V54.976H830.103V57.352H827.871V61H825.183V57.352H816.495ZM825.303 46.504L819.639 54.976H825.303V46.504Z" fill="#4B4B4B"/>
<path d="M952.256 23.098C951.603 23.098 951.015 22.986 950.492 22.762C949.969 22.5287 949.559 22.202 949.26 21.782C948.961 21.362 948.812 20.872 948.812 20.312H950.52C950.557 20.732 950.721 21.0773 951.01 21.348C951.309 21.6187 951.724 21.754 952.256 21.754C952.807 21.754 953.236 21.6233 953.544 21.362C953.852 21.0913 954.006 20.746 954.006 20.326C954.006 19.9993 953.908 19.7333 953.712 19.528C953.525 19.3227 953.287 19.164 952.998 19.052C952.718 18.94 952.326 18.8187 951.822 18.688C951.187 18.52 950.669 18.352 950.268 18.184C949.876 18.0067 949.54 17.736 949.26 17.372C948.98 17.008 948.84 16.5227 948.84 15.916C948.84 15.356 948.98 14.866 949.26 14.446C949.54 14.026 949.932 13.704 950.436 13.48C950.94 13.256 951.523 13.144 952.186 13.144C953.129 13.144 953.899 13.382 954.496 13.858C955.103 14.3247 955.439 14.9687 955.504 15.79H953.74C953.712 15.4353 953.544 15.132 953.236 14.88C952.928 14.628 952.522 14.502 952.018 14.502C951.561 14.502 951.187 14.6187 950.898 14.852C950.609 15.0853 950.464 15.4213 950.464 15.86C950.464 16.1587 950.553 16.406 950.73 16.602C950.917 16.7887 951.15 16.938 951.43 17.05C951.71 17.162 952.093 17.2833 952.578 17.414C953.222 17.5913 953.745 17.7687 954.146 17.946C954.557 18.1233 954.902 18.3987 955.182 18.772C955.471 19.136 955.616 19.626 955.616 20.242C955.616 20.7367 955.481 21.2033 955.21 21.642C954.949 22.0807 954.561 22.4353 954.048 22.706C953.544 22.9673 952.947 23.098 952.256 23.098ZM956.967 19.108C956.967 18.3333 957.126 17.6473 957.443 17.05C957.77 16.4527 958.209 15.9907 958.759 15.664C959.319 15.328 959.935 15.16 960.607 15.16C961.214 15.16 961.741 15.2813 962.189 15.524C962.647 15.7573 963.011 16.0513 963.281 16.406V15.286H964.891V23H963.281V21.852C963.011 22.216 962.642 22.5193 962.175 22.762C961.709 23.0047 961.177 23.126 960.579 23.126C959.917 23.126 959.31 22.958 958.759 22.622C958.209 22.2767 957.77 21.8007 957.443 21.194C957.126 20.578 956.967 19.8827 956.967 19.108ZM963.281 19.136C963.281 18.604 963.169 18.142 962.945 17.75C962.731 17.358 962.446 17.0593 962.091 16.854C961.737 16.6487 961.354 16.546 960.943 16.546C960.533 16.546 960.15 16.6487 959.795 16.854C959.441 17.05 959.151 17.344 958.927 17.736C958.713 18.1187 958.605 18.576 958.605 19.108C958.605 19.64 958.713 20.1067 958.927 20.508C959.151 20.9093 959.441 21.2173 959.795 21.432C960.159 21.6373 960.542 21.74 960.943 21.74C961.354 21.74 961.737 21.6373 962.091 21.432C962.446 21.2267 962.731 20.928 962.945 20.536C963.169 20.1347 963.281 19.668 963.281 19.136ZM968.85 16.588V20.858C968.85 21.1473 968.915 21.3573 969.046 21.488C969.186 21.6093 969.419 21.67 969.746 21.67H970.726V23H969.466C968.747 23 968.196 22.832 967.814 22.496C967.431 22.16 967.24 21.614 967.24 20.858V16.588H966.33V15.286H967.24V13.368H968.85V15.286H970.726V16.588H968.85Z" fill="#848484"/>
<path d="M950.08 46V43.504H955.072V61H952.312V46H950.08ZM970.111 45.856H962.071V50.632C962.407 50.184 962.903 49.808 963.559 49.504C964.231 49.2 964.943 49.048 965.695 49.048C967.039 49.048 968.127 49.336 968.959 49.912C969.807 50.488 970.407 51.216 970.759 52.096C971.127 52.976 971.311 53.904 971.311 54.88C971.311 56.064 971.079 57.12 970.615 58.048C970.167 58.96 969.487 59.68 968.575 60.208C967.679 60.736 966.575 61 965.263 61C963.519 61 962.119 60.568 961.063 59.704C960.007 58.84 959.375 57.696 959.167 56.272H961.831C962.007 57.024 962.399 57.624 963.007 58.072C963.615 58.504 964.375 58.72 965.287 58.72C966.423 58.72 967.271 58.376 967.831 57.688C968.407 57 968.695 56.088 968.695 54.952C968.695 53.8 968.407 52.92 967.831 52.312C967.255 51.688 966.407 51.376 965.287 51.376C964.503 51.376 963.839 51.576 963.295 51.976C962.767 52.36 962.383 52.888 962.143 53.56H959.551V43.456H970.111V45.856Z" fill="#4B4B4B"/>
<path d="M12.228 167.172C12.6947 167.079 13.0493 166.878 13.292 166.57C13.5347 166.262 13.656 165.847 13.656 165.324C13.656 164.661 13.3947 164.176 12.872 163.868C12.3493 163.56 11.458 163.406 10.198 163.406C10.5153 163.63 10.7627 163.947 10.94 164.358C11.108 164.759 11.192 165.198 11.192 165.674C11.192 166.281 11.0707 166.831 10.828 167.326C10.576 167.821 10.2073 168.213 9.722 168.502C9.22733 168.782 8.63 168.922 7.93 168.922C6.90333 168.922 6.08667 168.623 5.48 168.026C4.864 167.419 4.556 166.589 4.556 165.534C4.556 164.265 4.98067 163.364 5.83 162.832C6.67 162.291 7.96267 162.02 9.708 162.02C10.912 162.02 11.8967 162.123 12.662 162.328C13.4273 162.524 14.006 162.869 14.398 163.364C14.79 163.859 14.986 164.545 14.986 165.422C14.986 166.421 14.7247 167.191 14.202 167.732C13.6793 168.273 13.0213 168.577 12.228 168.642L12.228 167.172ZM9.848 165.394C9.848 164.834 9.67533 164.395 9.33 164.078C8.97533 163.751 8.50867 163.588 7.93 163.588C7.286 163.588 6.78667 163.761 6.432 164.106C6.068 164.442 5.886 164.904 5.886 165.492C5.886 166.08 6.07267 166.547 6.446 166.892C6.81 167.228 7.29067 167.396 7.888 167.396C8.45733 167.396 8.92867 167.233 9.302 166.906C9.666 166.57 9.848 166.066 9.848 165.394ZM15.098 159.419C15.098 159.709 15 159.951 14.804 160.147C14.608 160.343 14.3653 160.441 14.076 160.441C13.7867 160.441 13.544 160.343 13.348 160.147C13.152 159.951 13.054 159.709 13.054 159.419C13.054 159.139 13.152 158.901 13.348 158.705C13.544 158.509 13.7867 158.411 14.076 158.411C14.3653 158.411 14.608 158.509 14.804 158.705C15 158.901 15.098 159.139 15.098 159.419ZM9.218 159.419C9.218 159.709 9.12 159.951 8.924 160.147C8.728 160.343 8.48533 160.441 8.196 160.441C7.90667 160.441 7.664 160.343 7.468 160.147C7.272 159.951 7.174 159.709 7.174 159.419C7.174 159.139 7.272 158.901 7.468 158.705C7.664 158.509 7.90667 158.411 8.196 158.411C8.48533 158.411 8.728 158.509 8.924 158.705C9.12 158.901 9.218 159.139 9.218 159.419ZM9.764 156.842C8.14933 156.842 6.88933 156.571 5.984 156.03C5.06933 155.479 4.612 154.536 4.612 153.202C4.612 151.867 5.06933 150.929 5.984 150.388C6.88933 149.837 8.14933 149.562 9.764 149.562C11.3973 149.562 12.676 149.837 13.6 150.388C14.5147 150.929 14.972 151.867 14.972 153.202C14.972 154.536 14.5147 155.479 13.6 156.03C12.676 156.571 11.3973 156.842 9.764 156.842ZM9.764 151.13C9.008 151.13 8.36867 151.181 7.846 151.284C7.32333 151.377 6.89867 151.573 6.572 151.872C6.236 152.17 6.068 152.614 6.068 153.202C6.068 153.79 6.236 154.233 6.572 154.532C6.89867 154.83 7.32333 155.031 7.846 155.134C8.36867 155.227 9.008 155.274 9.764 155.274C10.548 155.274 11.206 155.227 11.738 155.134C12.27 155.04 12.6993 154.844 13.026 154.546C13.3527 154.238 13.516 153.79 13.516 153.202C13.516 152.614 13.3527 152.17 13.026 151.872C12.6993 151.564 12.27 151.363 11.738 151.27C11.206 151.176 10.548 151.13 9.764 151.13ZM9.764 147.873C8.14933 147.873 6.88933 147.602 5.984 147.061C5.06933 146.51 4.612 145.568 4.612 144.233C4.612 142.898 5.06933 141.96 5.984 141.419C6.88933 140.868 8.14933 140.593 9.764 140.593C11.3973 140.593 12.676 140.868 13.6 141.419C14.5147 141.96 14.972 142.898 14.972 144.233C14.972 145.568 14.5147 146.51 13.6 147.061C12.676 147.602 11.3973 147.873 9.764 147.873ZM9.764 142.161C9.008 142.161 8.36867 142.212 7.846 142.315C7.32333 142.408 6.89866 142.604 6.572 142.903C6.236 143.202 6.068 143.645 6.068 144.233C6.068 144.821 6.236 145.264 6.572 145.563C6.89867 145.862 7.32333 146.062 7.846 146.165C8.36867 146.258 9.008 146.305 9.764 146.305C10.548 146.305 11.206 146.258 11.738 146.165C12.27 146.072 12.6993 145.876 13.026 145.577C13.3527 145.269 13.516 144.821 13.516 144.233C13.516 143.645 13.3527 143.202 13.026 142.903C12.6993 142.595 12.27 142.394 11.738 142.301C11.206 142.208 10.548 142.161 9.764 142.161Z" fill="#848484"/>
<path d="M9.666 79.438C9.18067 80.4087 8.41533 80.894 7.37 80.894C6.866 80.894 6.404 80.768 5.984 80.516C5.564 80.264 5.23267 79.886 4.99 79.382C4.738 78.878 4.612 78.262 4.612 77.534C4.612 76.8153 4.738 76.204 4.99 75.7C5.23267 75.1867 5.564 74.804 5.984 74.552C6.404 74.3 6.866 74.174 7.37 74.174C7.89267 74.174 8.35467 74.3093 8.756 74.58C9.148 74.8413 9.45133 75.1913 9.666 75.63C9.862 75.098 10.184 74.678 10.632 74.37C11.0707 74.062 11.5887 73.908 12.186 73.908C12.7927 73.908 13.3293 74.062 13.796 74.37C14.2627 74.678 14.622 75.1073 14.874 75.658C15.126 76.2087 15.252 76.834 15.252 77.534C15.252 78.234 15.126 78.8593 14.874 79.41C14.622 79.9513 14.2627 80.376 13.796 80.684C13.3293 80.992 12.7927 81.146 12.186 81.146C11.5793 81.146 11.0567 80.992 10.618 80.684C10.1793 80.376 9.862 79.9607 9.666 79.438ZM7.566 75.7C7.04333 75.7 6.642 75.8633 6.362 76.19C6.082 76.5167 5.942 76.9647 5.942 77.534C5.942 78.094 6.082 78.5373 6.362 78.864C6.642 79.1907 7.048 79.354 7.58 79.354C8.04667 79.354 8.42933 79.186 8.728 78.85C9.01733 78.5047 9.162 78.066 9.162 77.534C9.162 77.002 9.01267 76.5633 8.714 76.218C8.41533 75.8727 8.03267 75.7 7.566 75.7ZM10.366 77.534C10.366 78.15 10.52 78.654 10.828 79.046C11.1267 79.4287 11.5607 79.62 12.13 79.62C12.662 79.62 13.096 79.4333 13.432 79.06C13.7587 78.6867 13.922 78.178 13.922 77.534C13.922 76.8993 13.754 76.4 13.418 76.036C13.082 75.6627 12.6527 75.476 12.13 75.476C11.57 75.476 11.136 75.6673 10.828 76.05C10.52 76.4233 10.366 76.918 10.366 77.534ZM15.098 71.3783C15.098 71.6676 15 71.9103 14.804 72.1063C14.608 72.3023 14.3653 72.4003 14.076 72.4003C13.7867 72.4003 13.544 72.3023 13.348 72.1063C13.152 71.9103 13.054 71.6676 13.054 71.3783C13.054 71.0983 13.152 70.8603 13.348 70.6643C13.544 70.4683 13.7867 70.3703 14.076 70.3703C14.3653 70.3703 14.608 70.4683 14.804 70.6643C15 70.8603 15.098 71.0983 15.098 71.3783ZM9.218 71.3783C9.218 71.6676 9.12 71.9103 8.924 72.1063C8.728 72.3023 8.48533 72.4003 8.196 72.4003C7.90667 72.4003 7.664 72.3023 7.468 72.1063C7.272 71.9103 7.174 71.6676 7.174 71.3783C7.174 71.0983 7.272 70.8603 7.468 70.6643C7.664 70.4683 7.90667 70.3703 8.196 70.3703C8.48533 70.3703 8.728 70.4683 8.924 70.6643C9.12 70.8603 9.218 71.0983 9.218 71.3783ZM9.764 68.8006C8.14933 68.8006 6.88933 68.53 5.984 67.9886C5.06933 67.438 4.612 66.4953 4.612 65.1606C4.612 63.826 5.06933 62.888 5.984 62.3466C6.88933 61.796 8.14933 61.5206 9.764 61.5206C11.3973 61.5206 12.676 61.796 13.6 62.3466C14.5147 62.888 14.972 63.826 14.972 65.1606C14.972 66.4953 14.5147 67.438 13.6 67.9886C12.676 68.53 11.3973 68.8006 9.764 68.8006ZM9.764 63.0886C9.008 63.0886 8.36867 63.14 7.846 63.2426C7.32333 63.336 6.89867 63.532 6.572 63.8306C6.236 64.1293 6.068 64.5726 6.068 65.1606C6.068 65.7486 6.236 66.192 6.572 66.4906C6.89867 66.7893 7.32333 66.99 7.846 67.0926C8.36867 67.186 9.008 67.2326 9.764 67.2326C10.548 67.2326 11.206 67.186 11.738 67.0926C12.27 66.9993 12.6993 66.8033 13.026 66.5046C13.3527 66.1966 13.516 65.7486 13.516 65.1606C13.516 64.5726 13.3527 64.1293 13.026 63.8306C12.6993 63.5226 12.27 63.322 11.738 63.2286C11.206 63.1353 10.548 63.0886 9.764 63.0886ZM9.764 59.8319C8.14933 59.8319 6.88933 59.5612 5.984 59.0199C5.06933 58.4692 4.612 57.5265 4.612 56.1919C4.612 54.8572 5.06933 53.9192 5.984 53.3779C6.88933 52.8272 8.14933 52.5519 9.764 52.5519C11.3973 52.5519 12.676 52.8272 13.6 53.3779C14.5147 53.9192 14.972 54.8572 14.972 56.1919C14.972 57.5265 14.5147 58.4692 13.6 59.0199C12.676 59.5612 11.3973 59.8319 9.764 59.8319ZM9.764 54.1199C9.008 54.1199 8.36867 54.1712 7.846 54.2739C7.32333 54.3672 6.89866 54.5632 6.572 54.8619C6.236 55.1605 6.068 55.6039 6.068 56.1919C6.068 56.7799 6.236 57.2232 6.572 57.5219C6.89867 57.8205 7.32333 58.0212 7.846 58.1239C8.36867 58.2172 9.008 58.2639 9.764 58.2639C10.548 58.2639 11.206 58.2172 11.738 58.1239C12.27 58.0305 12.6993 57.8345 13.026 57.5359C13.3527 57.2279 13.516 56.7799 13.516 56.1919C13.516 55.6039 13.3527 55.1605 13.026 54.8619C12.6993 54.5539 12.27 54.3532 11.738 54.2599C11.206 54.1665 10.548 54.1199 9.764 54.1199Z" fill="#848484"/>
<path d="M7.25 257.37L5.794 257.37L5.794 254.458L16 254.458L16 256.068L7.25 256.068L7.25 257.37ZM10.764 252.265C9.14933 252.265 7.88933 251.995 6.984 251.453C6.06933 250.903 5.612 249.96 5.612 248.625C5.612 247.291 6.06933 246.353 6.984 245.811C7.88933 245.261 9.14933 244.985 10.764 244.985C12.3973 244.985 13.676 245.261 14.6 245.811C15.5147 246.353 15.972 247.291 15.972 248.625C15.972 249.96 15.5147 250.903 14.6 251.453C13.676 251.995 12.3973 252.265 10.764 252.265ZM10.764 246.553C10.008 246.553 9.36867 246.605 8.846 246.707C8.32333 246.801 7.89867 246.997 7.572 247.295C7.236 247.594 7.068 248.037 7.068 248.625C7.068 249.213 7.236 249.657 7.572 249.955C7.89867 250.254 8.32333 250.455 8.846 250.557C9.36867 250.651 10.008 250.697 10.764 250.697C11.548 250.697 12.206 250.651 12.738 250.557C13.27 250.464 13.6993 250.268 14.026 249.969C14.3527 249.661 14.516 249.213 14.516 248.625C14.516 248.037 14.3527 247.594 14.026 247.295C13.6993 246.987 13.27 246.787 12.738 246.693C12.206 246.6 11.548 246.553 10.764 246.553ZM16.098 242.443C16.098 242.732 16 242.975 15.804 243.171C15.608 243.367 15.3653 243.465 15.076 243.465C14.7867 243.465 14.544 243.367 14.348 243.171C14.152 242.975 14.054 242.732 14.054 242.443C14.054 242.163 14.152 241.925 14.348 241.729C14.544 241.533 14.7867 241.435 15.076 241.435C15.3653 241.435 15.608 241.533 15.804 241.729C16 241.925 16.098 242.163 16.098 242.443ZM10.218 242.443C10.218 242.732 10.12 242.975 9.924 243.171C9.728 243.367 9.48533 243.465 9.196 243.465C8.90667 243.465 8.664 243.367 8.468 243.171C8.272 242.975 8.174 242.732 8.174 242.443C8.174 242.163 8.272 241.925 8.468 241.729C8.664 241.533 8.90667 241.435 9.196 241.435C9.48533 241.435 9.728 241.533 9.924 241.729C10.12 241.925 10.218 242.163 10.218 242.443ZM10.764 239.865C9.14933 239.865 7.88933 239.594 6.984 239.053C6.06933 238.502 5.612 237.56 5.612 236.225C5.612 234.89 6.06933 233.952 6.984 233.411C7.88933 232.86 9.14933 232.585 10.764 232.585C12.3973 232.585 13.676 232.86 14.6 233.411C15.5147 233.952 15.972 234.89 15.972 236.225C15.972 237.56 15.5147 238.502 14.6 239.053C13.676 239.594 12.3973 239.865 10.764 239.865ZM10.764 234.153C10.008 234.153 9.36867 234.204 8.846 234.307C8.32333 234.4 7.89867 234.596 7.572 234.895C7.236 235.194 7.068 235.637 7.068 236.225C7.068 236.813 7.236 237.256 7.572 237.555C7.89867 237.854 8.32333 238.054 8.846 238.157C9.36867 238.25 10.008 238.297 10.764 238.297C11.548 238.297 12.206 238.25 12.738 238.157C13.27 238.064 13.6993 237.868 14.026 237.569C14.3527 237.261 14.516 236.813 14.516 236.225C14.516 235.637 14.3527 235.194 14.026 234.895C13.6993 234.587 13.27 234.386 12.738 234.293C12.206 234.2 11.548 234.153 10.764 234.153ZM10.764 230.896C9.14933 230.896 7.88933 230.626 6.984 230.084C6.06933 229.534 5.612 228.591 5.612 227.256C5.612 225.922 6.06933 224.984 6.984 224.442C7.88933 223.892 9.14933 223.616 10.764 223.616C12.3973 223.616 13.676 223.892 14.6 224.442C15.5147 224.984 15.972 225.922 15.972 227.256C15.972 228.591 15.5147 229.534 14.6 230.084C13.676 230.626 12.3973 230.896 10.764 230.896ZM10.764 225.184C10.008 225.184 9.36866 225.236 8.846 225.338C8.32333 225.432 7.89866 225.628 7.572 225.926C7.236 226.225 7.068 226.668 7.068 227.256C7.068 227.844 7.236 228.288 7.572 228.586C7.89866 228.885 8.32333 229.086 8.846 229.188C9.36867 229.282 10.008 229.328 10.764 229.328C11.548 229.328 12.206 229.282 12.738 229.188C13.27 229.095 13.6993 228.899 14.026 228.6C14.3527 228.292 14.516 227.844 14.516 227.256C14.516 226.668 14.3527 226.225 14.026 225.926C13.6993 225.618 13.27 225.418 12.738 225.324C12.206 225.231 11.548 225.184 10.764 225.184Z" fill="#848484"/>
<path d="M6.25 345.37L4.794 345.37L4.794 342.458L15 342.458L15 344.068L6.25 344.068L6.25 345.37ZM6.25 340.475L4.794 340.475L4.794 337.563L15 337.563L15 339.173L6.25 339.173L6.25 340.475ZM15.098 334.517C15.098 334.806 15 335.049 14.804 335.245C14.608 335.441 14.3653 335.539 14.076 335.539C13.7867 335.539 13.544 335.441 13.348 335.245C13.152 335.049 13.054 334.806 13.054 334.517C13.054 334.237 13.152 333.999 13.348 333.803C13.544 333.607 13.7867 333.509 14.076 333.509C14.3653 333.509 14.608 333.607 14.804 333.803C15 333.999 15.098 334.237 15.098 334.517ZM9.218 334.517C9.218 334.806 9.12 335.049 8.924 335.245C8.728 335.441 8.48533 335.539 8.196 335.539C7.90667 335.539 7.664 335.441 7.468 335.245C7.272 335.049 7.174 334.806 7.174 334.517C7.174 334.237 7.272 333.999 7.468 333.803C7.664 333.607 7.90667 333.509 8.196 333.509C8.48533 333.509 8.728 333.607 8.924 333.803C9.12 333.999 9.218 334.237 9.218 334.517ZM9.764 331.939C8.14933 331.939 6.88933 331.669 5.984 331.127C5.06933 330.577 4.612 329.634 4.612 328.299C4.612 326.965 5.06933 326.027 5.984 325.485C6.88933 324.935 8.14933 324.659 9.764 324.659C11.3973 324.659 12.676 324.935 13.6 325.485C14.5147 326.027 14.972 326.965 14.972 328.299C14.972 329.634 14.5147 330.577 13.6 331.127C12.676 331.669 11.3973 331.939 9.764 331.939ZM9.764 326.227C9.008 326.227 8.36867 326.279 7.846 326.381C7.32333 326.475 6.89867 326.671 6.572 326.969C6.236 327.268 6.068 327.711 6.068 328.299C6.068 328.887 6.236 329.331 6.572 329.629C6.89867 329.928 7.32333 330.129 7.846 330.231C8.36867 330.325 9.008 330.371 9.764 330.371C10.548 330.371 11.206 330.325 11.738 330.231C12.27 330.138 12.6993 329.942 13.026 329.643C13.3527 329.335 13.516 328.887 13.516 328.299C13.516 327.711 13.3527 327.268 13.026 326.969C12.6993 326.661 12.27 326.461 11.738 326.367C11.206 326.274 10.548 326.227 9.764 326.227ZM9.764 322.971C8.14933 322.971 6.88933 322.7 5.984 322.159C5.06933 321.608 4.612 320.665 4.612 319.331C4.612 317.996 5.06933 317.058 5.984 316.517C6.88933 315.966 8.14933 315.691 9.764 315.691C11.3973 315.691 12.676 315.966 13.6 316.517C14.5147 317.058 14.972 317.996 14.972 319.331C14.972 320.665 14.5147 321.608 13.6 322.159C12.676 322.7 11.3973 322.971 9.764 322.971ZM9.764 317.259C9.008 317.259 8.36867 317.31 7.846 317.413C7.32333 317.506 6.89866 317.702 6.572 318.001C6.236 318.299 6.068 318.743 6.068 319.331C6.068 319.919 6.236 320.362 6.572 320.661C6.89867 320.959 7.32333 321.16 7.846 321.263C8.36867 321.356 9.008 321.403 9.764 321.403C10.548 321.403 11.206 321.356 11.738 321.263C12.27 321.169 12.6993 320.973 13.026 320.675C13.3527 320.367 13.516 319.919 13.516 319.331C13.516 318.743 13.3527 318.299 13.026 318.001C12.6993 317.693 12.27 317.492 11.738 317.399C11.206 317.305 10.548 317.259 9.764 317.259Z" fill="#848484"/>
<path d="M6.25 433.37L4.794 433.37L4.794 430.458L15 430.458L15 432.068L6.25 432.068L6.25 433.37ZM12.83 427.383C12.0553 426.487 11.4207 425.783 10.926 425.269C10.422 424.747 9.89933 424.313 9.358 423.967C8.81667 423.622 8.27533 423.449 7.734 423.449C7.174 423.449 6.73533 423.585 6.418 423.855C6.10067 424.117 5.942 424.532 5.942 425.101C5.942 425.652 6.11933 426.081 6.474 426.389C6.81933 426.688 7.286 426.847 7.874 426.865L7.874 428.405C6.81 428.377 5.998 428.06 5.438 427.453C4.86867 426.837 4.584 426.058 4.584 425.115C4.584 424.098 4.864 423.305 5.424 422.735C5.984 422.157 6.73067 421.867 7.664 421.867C8.336 421.867 8.98467 422.04 9.61 422.385C10.226 422.721 10.7813 423.127 11.276 423.603C11.7613 424.07 12.326 424.667 12.97 425.395L13.53 426.025L13.53 421.587L14.86 421.587L14.86 428.391L13.698 428.391L12.83 427.383ZM15.098 419.331C15.098 419.621 15 419.863 14.804 420.059C14.608 420.255 14.3653 420.353 14.076 420.353C13.7867 420.353 13.544 420.255 13.348 420.059C13.152 419.863 13.054 419.621 13.054 419.331C13.054 419.051 13.152 418.813 13.348 418.617C13.544 418.421 13.7867 418.323 14.076 418.323C14.3653 418.323 14.608 418.421 14.804 418.617C15 418.813 15.098 419.051 15.098 419.331ZM9.218 419.331C9.218 419.621 9.12 419.863 8.924 420.059C8.728 420.255 8.48533 420.353 8.196 420.353C7.90667 420.353 7.664 420.255 7.468 420.059C7.272 419.863 7.174 419.621 7.174 419.331C7.174 419.051 7.272 418.813 7.468 418.617C7.664 418.421 7.90667 418.323 8.196 418.323C8.48533 418.323 8.728 418.421 8.924 418.617C9.12 418.813 9.218 419.051 9.218 419.331ZM9.764 416.754C8.14933 416.754 6.88933 416.483 5.984 415.942C5.06933 415.391 4.612 414.448 4.612 413.114C4.612 411.779 5.06933 410.841 5.984 410.3C6.88933 409.749 8.14933 409.474 9.764 409.474C11.3973 409.474 12.676 409.749 13.6 410.3C14.5147 410.841 14.972 411.779 14.972 413.114C14.972 414.448 14.5147 415.391 13.6 415.942C12.676 416.483 11.3973 416.754 9.764 416.754ZM9.764 411.042C9.008 411.042 8.36867 411.093 7.846 411.196C7.32333 411.289 6.89867 411.485 6.572 411.784C6.236 412.082 6.068 412.526 6.068 413.114C6.068 413.702 6.236 414.145 6.572 414.444C6.89867 414.742 7.32333 414.943 7.846 415.046C8.36867 415.139 9.008 415.186 9.764 415.186C10.548 415.186 11.206 415.139 11.738 415.046C12.27 414.952 12.6993 414.756 13.026 414.458C13.3527 414.15 13.516 413.702 13.516 413.114C13.516 412.526 13.3527 412.082 13.026 411.784C12.6993 411.476 12.27 411.275 11.738 411.182C11.206 411.088 10.548 411.042 9.764 411.042ZM9.764 407.785C8.14933 407.785 6.88933 407.514 5.984 406.973C5.06933 406.422 4.612 405.48 4.612 404.145C4.612 402.81 5.06933 401.872 5.984 401.331C6.88933 400.78 8.14933 400.505 9.764 400.505C11.3973 400.505 12.676 400.78 13.6 401.331C14.5147 401.872 14.972 402.81 14.972 404.145C14.972 405.48 14.5147 406.422 13.6 406.973C12.676 407.514 11.3973 407.785 9.764 407.785ZM9.764 402.073C9.008 402.073 8.36866 402.124 7.846 402.227C7.32333 402.32 6.89866 402.516 6.572 402.815C6.236 403.114 6.068 403.557 6.068 404.145C6.068 404.733 6.236 405.176 6.572 405.475C6.89866 405.774 7.32333 405.974 7.846 406.077C8.36867 406.17 9.008 406.217 9.764 406.217C10.548 406.217 11.206 406.17 11.738 406.077C12.27 405.984 12.6993 405.788 13.026 405.489C13.3527 405.181 13.516 404.733 13.516 404.145C13.516 403.557 13.3527 403.114 13.026 402.815C12.6993 402.507 12.27 402.306 11.738 402.213C11.206 402.12 10.548 402.073 9.764 402.073Z" fill="#848484"/>
<rect x="178" y="89" width="128" height="161" rx="10" fill="#55BC7E" fill-opacity="0.75"/>
<path d="M198.832 103.88C200.016 103.88 201.051 104.109 201.936 104.568C202.832 105.016 203.52 105.667 204 106.52C204.491 107.363 204.736 108.349 204.736 109.48C204.736 110.611 204.491 111.592 204 112.424C203.52 113.256 202.832 113.896 201.936 114.344C201.051 114.781 200.016 115 198.832 115H195.2V103.88H198.832ZM198.832 113.512C200.133 113.512 201.131 113.16 201.824 112.456C202.517 111.752 202.864 110.76 202.864 109.48C202.864 108.189 202.517 107.181 201.824 106.456C201.131 105.731 200.133 105.368 198.832 105.368H197.024V113.512H198.832ZM205.936 110.552C205.936 109.667 206.117 108.883 206.48 108.2C206.853 107.517 207.354 106.989 207.984 106.616C208.624 106.232 209.328 106.04 210.096 106.04C210.789 106.04 211.392 106.179 211.904 106.456C212.426 106.723 212.842 107.059 213.152 107.464V106.184H214.992V115H213.152V113.688C212.842 114.104 212.421 114.451 211.888 114.728C211.354 115.005 210.746 115.144 210.064 115.144C209.306 115.144 208.613 114.952 207.984 114.568C207.354 114.173 206.853 113.629 206.48 112.936C206.117 112.232 205.936 111.437 205.936 110.552ZM213.152 110.584C213.152 109.976 213.024 109.448 212.768 109C212.522 108.552 212.197 108.211 211.792 107.976C211.386 107.741 210.949 107.624 210.48 107.624C210.01 107.624 209.573 107.741 209.168 107.976C208.762 108.2 208.432 108.536 208.176 108.984C207.93 109.421 207.808 109.944 207.808 110.552C207.808 111.16 207.93 111.693 208.176 112.152C208.432 112.611 208.762 112.963 209.168 113.208C209.584 113.443 210.021 113.56 210.48 113.56C210.949 113.56 211.386 113.443 211.792 113.208C212.197 112.973 212.522 112.632 212.768 112.184C213.024 111.725 213.152 111.192 213.152 110.584ZM218.316 105.016C217.985 105.016 217.708 104.904 217.484 104.68C217.26 104.456 217.148 104.179 217.148 103.848C217.148 103.517 217.26 103.24 217.484 103.016C217.708 102.792 217.985 102.68 218.316 102.68C218.636 102.68 218.908 102.792 219.132 103.016C219.356 103.24 219.468 103.517 219.468 103.848C219.468 104.179 219.356 104.456 219.132 104.68C218.908 104.904 218.636 105.016 218.316 105.016ZM219.212 106.184V115H217.388V106.184H219.212ZM223.43 103.16V115H221.606V103.16H223.43ZM233.761 106.184L228.353 119.144H226.465L228.257 114.856L224.785 106.184H226.817L229.297 112.904L231.873 106.184H233.761ZM246.478 103.88V105.368H243.518V115H241.694V105.368H238.718V103.88H246.478ZM256.405 110.376C256.405 110.707 256.384 111.005 256.341 111.272H249.605C249.658 111.976 249.92 112.541 250.389 112.968C250.858 113.395 251.434 113.608 252.117 113.608C253.098 113.608 253.792 113.197 254.197 112.376H256.165C255.898 113.187 255.413 113.853 254.709 114.376C254.016 114.888 253.152 115.144 252.117 115.144C251.274 115.144 250.517 114.957 249.845 114.584C249.184 114.2 248.661 113.667 248.277 112.984C247.904 112.291 247.717 111.491 247.717 110.584C247.717 109.677 247.898 108.883 248.261 108.2C248.634 107.507 249.152 106.973 249.813 106.6C250.485 106.227 251.253 106.04 252.117 106.04C252.949 106.04 253.69 106.221 254.341 106.584C254.992 106.947 255.498 107.459 255.861 108.12C256.224 108.771 256.405 109.523 256.405 110.376ZM254.501 109.8C254.49 109.128 254.25 108.589 253.781 108.184C253.312 107.779 252.73 107.576 252.037 107.576C251.408 107.576 250.869 107.779 250.421 108.184C249.973 108.579 249.706 109.117 249.621 109.8H254.501ZM261.4 115.144C260.707 115.144 260.083 115.021 259.528 114.776C258.984 114.52 258.552 114.179 258.232 113.752C257.912 113.315 257.741 112.829 257.72 112.296H259.608C259.64 112.669 259.816 112.984 260.136 113.24C260.467 113.485 260.877 113.608 261.368 113.608C261.88 113.608 262.275 113.512 262.552 113.32C262.84 113.117 262.984 112.861 262.984 112.552C262.984 112.221 262.824 111.976 262.504 111.816C262.195 111.656 261.699 111.48 261.016 111.288C260.355 111.107 259.816 110.931 259.4 110.76C258.984 110.589 258.621 110.328 258.312 109.976C258.013 109.624 257.864 109.16 257.864 108.584C257.864 108.115 258.003 107.688 258.28 107.304C258.557 106.909 258.952 106.6 259.464 106.376C259.987 106.152 260.584 106.04 261.256 106.04C262.259 106.04 263.064 106.296 263.672 106.808C264.291 107.309 264.621 107.997 264.664 108.872H262.84C262.808 108.477 262.648 108.163 262.36 107.928C262.072 107.693 261.683 107.576 261.192 107.576C260.712 107.576 260.344 107.667 260.088 107.848C259.832 108.029 259.704 108.269 259.704 108.568C259.704 108.803 259.789 109 259.96 109.16C260.131 109.32 260.339 109.448 260.584 109.544C260.829 109.629 261.192 109.741 261.672 109.88C262.312 110.051 262.835 110.227 263.24 110.408C263.656 110.579 264.013 110.835 264.312 111.176C264.611 111.517 264.765 111.971 264.776 112.536C264.776 113.037 264.637 113.485 264.36 113.88C264.083 114.275 263.688 114.584 263.176 114.808C262.675 115.032 262.083 115.144 261.4 115.144ZM268.875 107.672V112.552C268.875 112.883 268.95 113.123 269.099 113.272C269.259 113.411 269.526 113.48 269.899 113.48H271.019V115H269.579C268.758 115 268.128 114.808 267.691 114.424C267.254 114.04 267.035 113.416 267.035 112.552V107.672H265.995V106.184H267.035V103.992H268.875V106.184H271.019V107.672H268.875Z" fill="white"/>
<path d="M196.562 136.666C195.591 136.181 195.106 135.415 195.106 134.37C195.106 133.866 195.232 133.404 195.484 132.984C195.736 132.564 196.114 132.233 196.618 131.99C197.122 131.738 197.738 131.612 198.466 131.612C199.185 131.612 199.796 131.738 200.3 131.99C200.813 132.233 201.196 132.564 201.448 132.984C201.7 133.404 201.826 133.866 201.826 134.37C201.826 134.893 201.691 135.355 201.42 135.756C201.159 136.148 200.809 136.451 200.37 136.666C200.902 136.862 201.322 137.184 201.63 137.632C201.938 138.071 202.092 138.589 202.092 139.186C202.092 139.793 201.938 140.329 201.63 140.796C201.322 141.263 200.893 141.622 200.342 141.874C199.791 142.126 199.166 142.252 198.466 142.252C197.766 142.252 197.141 142.126 196.59 141.874C196.049 141.622 195.624 141.263 195.316 140.796C195.008 140.329 194.854 139.793 194.854 139.186C194.854 138.579 195.008 138.057 195.316 137.618C195.624 137.179 196.039 136.862 196.562 136.666ZM200.3 134.566C200.3 134.043 200.137 133.642 199.81 133.362C199.483 133.082 199.035 132.942 198.466 132.942C197.906 132.942 197.463 133.082 197.136 133.362C196.809 133.642 196.646 134.048 196.646 134.58C196.646 135.047 196.814 135.429 197.15 135.728C197.495 136.017 197.934 136.162 198.466 136.162C198.998 136.162 199.437 136.013 199.782 135.714C200.127 135.415 200.3 135.033 200.3 134.566ZM198.466 137.366C197.85 137.366 197.346 137.52 196.954 137.828C196.571 138.127 196.38 138.561 196.38 139.13C196.38 139.662 196.567 140.096 196.94 140.432C197.313 140.759 197.822 140.922 198.466 140.922C199.101 140.922 199.6 140.754 199.964 140.418C200.337 140.082 200.524 139.653 200.524 139.13C200.524 138.57 200.333 138.136 199.95 137.828C199.577 137.52 199.082 137.366 198.466 137.366ZM209.844 140.012H205.77L205.07 142H203.404L206.89 132.256H208.738L212.224 142H210.544L209.844 140.012ZM209.396 138.71L207.814 134.188L206.218 138.71H209.396ZM223.987 132.27V142H222.391V135.336L219.423 142H218.317L215.335 135.336V142H213.739V132.27H215.461L218.877 139.9L222.279 132.27H223.987ZM235.644 136.26V137.604H229.89V136.26H235.644ZM241.128 133.25V131.794H244.04V142H242.43V133.25H241.128ZM246.233 136.764C246.233 135.149 246.503 133.889 247.045 132.984C247.595 132.069 248.538 131.612 249.873 131.612C251.207 131.612 252.145 132.069 252.687 132.984C253.237 133.889 253.513 135.149 253.513 136.764C253.513 138.397 253.237 139.676 252.687 140.6C252.145 141.515 251.207 141.972 249.873 141.972C248.538 141.972 247.595 141.515 247.045 140.6C246.503 139.676 246.233 138.397 246.233 136.764ZM251.945 136.764C251.945 136.008 251.893 135.369 251.791 134.846C251.697 134.323 251.501 133.899 251.203 133.572C250.904 133.236 250.461 133.068 249.873 133.068C249.285 133.068 248.841 133.236 248.543 133.572C248.244 133.899 248.043 134.323 247.941 134.846C247.847 135.369 247.801 136.008 247.801 136.764C247.801 137.548 247.847 138.206 247.941 138.738C248.034 139.27 248.23 139.699 248.529 140.026C248.837 140.353 249.285 140.516 249.873 140.516C250.461 140.516 250.904 140.353 251.203 140.026C251.511 139.699 251.711 139.27 251.805 138.738C251.898 138.206 251.945 137.548 251.945 136.764ZM264.914 140.012H260.84L260.14 142H258.474L261.96 132.256H263.808L267.294 142H265.614L264.914 140.012ZM264.466 138.71L262.884 134.188L261.288 138.71H264.466ZM279.058 132.27V142H277.462V135.336L274.494 142H273.388L270.406 135.336V142H268.81V132.27H270.532L273.948 139.9L277.35 132.27H279.058Z" fill="white"/>
<path d="M200.104 218L197.864 214.108H196.646V218H195.05V208.27H198.41C199.157 208.27 199.787 208.401 200.3 208.662C200.823 208.923 201.21 209.273 201.462 209.712C201.723 210.151 201.854 210.641 201.854 211.182C201.854 211.817 201.667 212.395 201.294 212.918C200.93 213.431 200.365 213.781 199.6 213.968L202.008 218H200.104ZM196.646 212.834H198.41C199.007 212.834 199.455 212.685 199.754 212.386C200.062 212.087 200.216 211.686 200.216 211.182C200.216 210.678 200.067 210.286 199.768 210.006C199.469 209.717 199.017 209.572 198.41 209.572H196.646V212.834ZM210.966 213.954C210.966 214.243 210.947 214.505 210.91 214.738H205.016C205.062 215.354 205.291 215.849 205.702 216.222C206.112 216.595 206.616 216.782 207.214 216.782C208.072 216.782 208.679 216.423 209.034 215.704H210.756C210.522 216.413 210.098 216.997 209.482 217.454C208.875 217.902 208.119 218.126 207.214 218.126C206.476 218.126 205.814 217.963 205.226 217.636C204.647 217.3 204.19 216.833 203.854 216.236C203.527 215.629 203.364 214.929 203.364 214.136C203.364 213.343 203.522 212.647 203.84 212.05C204.166 211.443 204.619 210.977 205.198 210.65C205.786 210.323 206.458 210.16 207.214 210.16C207.942 210.16 208.59 210.319 209.16 210.636C209.729 210.953 210.172 211.401 210.49 211.98C210.807 212.549 210.966 213.207 210.966 213.954ZM209.3 213.45C209.29 212.862 209.08 212.391 208.67 212.036C208.259 211.681 207.75 211.504 207.144 211.504C206.593 211.504 206.122 211.681 205.73 212.036C205.338 212.381 205.104 212.853 205.03 213.45H209.3ZM215.336 218.126C214.73 218.126 214.184 218.019 213.698 217.804C213.222 217.58 212.844 217.281 212.564 216.908C212.284 216.525 212.135 216.101 212.116 215.634H213.768C213.796 215.961 213.95 216.236 214.23 216.46C214.52 216.675 214.879 216.782 215.308 216.782C215.756 216.782 216.102 216.698 216.344 216.53C216.596 216.353 216.722 216.129 216.722 215.858C216.722 215.569 216.582 215.354 216.302 215.214C216.032 215.074 215.598 214.92 215 214.752C214.422 214.593 213.95 214.439 213.586 214.29C213.222 214.141 212.905 213.912 212.634 213.604C212.373 213.296 212.242 212.89 212.242 212.386C212.242 211.975 212.364 211.602 212.606 211.266C212.849 210.921 213.194 210.65 213.642 210.454C214.1 210.258 214.622 210.16 215.21 210.16C216.088 210.16 216.792 210.384 217.324 210.832C217.866 211.271 218.155 211.873 218.192 212.638H216.596C216.568 212.293 216.428 212.017 216.176 211.812C215.924 211.607 215.584 211.504 215.154 211.504C214.734 211.504 214.412 211.583 214.188 211.742C213.964 211.901 213.852 212.111 213.852 212.372C213.852 212.577 213.927 212.75 214.076 212.89C214.226 213.03 214.408 213.142 214.622 213.226C214.837 213.301 215.154 213.399 215.574 213.52C216.134 213.669 216.592 213.823 216.946 213.982C217.31 214.131 217.623 214.355 217.884 214.654C218.146 214.953 218.281 215.349 218.29 215.844C218.29 216.283 218.169 216.675 217.926 217.02C217.684 217.365 217.338 217.636 216.89 217.832C216.452 218.028 215.934 218.126 215.336 218.126ZM227.001 210.286V218H225.405V217.09C225.153 217.407 224.822 217.659 224.411 217.846C224.01 218.023 223.58 218.112 223.123 218.112C222.516 218.112 221.97 217.986 221.485 217.734C221.009 217.482 220.631 217.109 220.351 216.614C220.08 216.119 219.945 215.522 219.945 214.822V210.286H221.527V214.584C221.527 215.275 221.7 215.807 222.045 216.18C222.39 216.544 222.862 216.726 223.459 216.726C224.056 216.726 224.528 216.544 224.873 216.18C225.228 215.807 225.405 215.275 225.405 214.584V210.286H227.001ZM230.703 207.64V218H229.107V207.64H230.703ZM234.66 211.588V215.858C234.66 216.147 234.725 216.357 234.856 216.488C234.996 216.609 235.229 216.67 235.556 216.67H236.536V218H235.276C234.557 218 234.007 217.832 233.624 217.496C233.241 217.16 233.05 216.614 233.05 215.858V211.588H232.14V210.286H233.05V208.368H234.66V210.286H236.536V211.588H234.66Z" fill="white"/>
<path d="M194 219.4H236.956V220.1H194V219.4Z" fill="white"/>
<path d="M200.288 228.66V229.776H198.068V237H196.7V229.776H194.468V228.66H200.288ZM207.733 233.532C207.733 233.78 207.717 234.004 207.685 234.204H202.633C202.673 234.732 202.869 235.156 203.221 235.476C203.573 235.796 204.005 235.956 204.517 235.956C205.253 235.956 205.773 235.648 206.077 235.032H207.553C207.353 235.64 206.989 236.14 206.461 236.532C205.941 236.916 205.293 237.108 204.517 237.108C203.885 237.108 203.317 236.968 202.813 236.688C202.317 236.4 201.925 236 201.637 235.488C201.357 234.968 201.217 234.368 201.217 233.688C201.217 233.008 201.353 232.412 201.625 231.9C201.905 231.38 202.293 230.98 202.789 230.7C203.293 230.42 203.869 230.28 204.517 230.28C205.141 230.28 205.697 230.416 206.185 230.688C206.673 230.96 207.053 231.344 207.325 231.84C207.597 232.328 207.733 232.892 207.733 233.532ZM206.305 233.1C206.297 232.596 206.117 232.192 205.765 231.888C205.413 231.584 204.977 231.432 204.457 231.432C203.985 231.432 203.581 231.584 203.245 231.888C202.909 232.184 202.709 232.588 202.645 233.1H206.305ZM211.48 237.108C210.96 237.108 210.492 237.016 210.076 236.832C209.668 236.64 209.344 236.384 209.104 236.064C208.864 235.736 208.736 235.372 208.72 234.972H210.136C210.16 235.252 210.292 235.488 210.532 235.68C210.78 235.864 211.088 235.956 211.456 235.956C211.84 235.956 212.136 235.884 212.344 235.74C212.56 235.588 212.668 235.396 212.668 235.164C212.668 234.916 212.548 234.732 212.308 234.612C212.076 234.492 211.704 234.36 211.192 234.216C210.696 234.08 210.292 233.948 209.98 233.82C209.668 233.692 209.396 233.496 209.164 233.232C208.94 232.968 208.828 232.62 208.828 232.188C208.828 231.836 208.932 231.516 209.14 231.228C209.348 230.932 209.644 230.7 210.028 230.532C210.42 230.364 210.868 230.28 211.372 230.28C212.124 230.28 212.728 230.472 213.184 230.856C213.648 231.232 213.896 231.748 213.928 232.404H212.56C212.536 232.108 212.416 231.872 212.2 231.696C211.984 231.52 211.692 231.432 211.324 231.432C210.964 231.432 210.688 231.5 210.496 231.636C210.304 231.772 210.208 231.952 210.208 232.176C210.208 232.352 210.272 232.5 210.4 232.62C210.528 232.74 210.684 232.836 210.868 232.908C211.052 232.972 211.324 233.056 211.684 233.16C212.164 233.288 212.556 233.42 212.86 233.556C213.172 233.684 213.44 233.876 213.664 234.132C213.888 234.388 214.004 234.728 214.012 235.152C214.012 235.528 213.908 235.864 213.7 236.16C213.492 236.456 213.196 236.688 212.812 236.856C212.436 237.024 211.992 237.108 211.48 237.108ZM217.086 231.504V235.164C217.086 235.412 217.142 235.592 217.254 235.704C217.374 235.808 217.574 235.86 217.854 235.86H218.694V237H217.614C216.998 237 216.526 236.856 216.198 236.568C215.87 236.28 215.706 235.812 215.706 235.164V231.504H214.926V230.388H215.706V228.744H217.086V230.388H218.694V231.504H217.086ZM224.44 229.764V232.212H227.32V233.328H224.44V235.884H227.68V237H223.072V228.648H227.68V229.764H224.44ZM232.197 233.652L234.333 237H232.785L231.357 234.756L230.013 237H228.585L230.721 233.748L228.585 230.388H230.133L231.561 232.632L232.905 230.388H234.333L232.197 233.652ZM236.721 231.36C236.953 231.056 237.269 230.8 237.669 230.592C238.069 230.384 238.521 230.28 239.025 230.28C239.601 230.28 240.125 230.424 240.597 230.712C241.077 230.992 241.453 231.388 241.725 231.9C241.997 232.412 242.133 233 242.133 233.664C242.133 234.328 241.997 234.924 241.725 235.452C241.453 235.972 241.077 236.38 240.597 236.676C240.125 236.964 239.601 237.108 239.025 237.108C238.521 237.108 238.073 237.008 237.681 236.808C237.289 236.6 236.969 236.344 236.721 236.04V240.144H235.353V230.388H236.721V231.36ZM240.741 233.664C240.741 233.208 240.645 232.816 240.453 232.488C240.269 232.152 240.021 231.9 239.709 231.732C239.405 231.556 239.077 231.468 238.725 231.468C238.381 231.468 238.053 231.556 237.741 231.732C237.437 231.908 237.189 232.164 236.997 232.5C236.813 232.836 236.721 233.232 236.721 233.688C236.721 234.144 236.813 234.544 236.997 234.888C237.189 235.224 237.437 235.48 237.741 235.656C238.053 235.832 238.381 235.92 238.725 235.92C239.077 235.92 239.405 235.832 239.709 235.656C240.021 235.472 240.269 235.208 240.453 234.864C240.645 234.52 240.741 234.12 240.741 233.664ZM244.182 229.512C243.934 229.512 243.726 229.428 243.558 229.26C243.39 229.092 243.306 228.884 243.306 228.636C243.306 228.388 243.39 228.18 243.558 228.012C243.726 227.844 243.934 227.76 244.182 227.76C244.422 227.76 244.626 227.844 244.794 228.012C244.962 228.18 245.046 228.388 245.046 228.636C245.046 228.884 244.962 229.092 244.794 229.26C244.626 229.428 244.422 229.512 244.182 229.512ZM244.854 230.388V237H243.486V230.388H244.854ZM248.018 231.348C248.218 231.012 248.482 230.752 248.81 230.568C249.146 230.376 249.542 230.28 249.998 230.28V231.696H249.65C249.114 231.696 248.706 231.832 248.426 232.104C248.154 232.376 248.018 232.848 248.018 233.52V237H246.65V230.388H248.018V231.348ZM257.315 233.532C257.315 233.78 257.299 234.004 257.267 234.204H252.215C252.255 234.732 252.451 235.156 252.803 235.476C253.155 235.796 253.587 235.956 254.099 235.956C254.835 235.956 255.355 235.648 255.659 235.032H257.135C256.935 235.64 256.571 236.14 256.043 236.532C255.523 236.916 254.875 237.108 254.099 237.108C253.467 237.108 252.899 236.968 252.395 236.688C251.899 236.4 251.507 236 251.219 235.488C250.939 234.968 250.799 234.368 250.799 233.688C250.799 233.008 250.935 232.412 251.207 231.9C251.487 231.38 251.875 230.98 252.371 230.7C252.875 230.42 253.451 230.28 254.099 230.28C254.723 230.28 255.279 230.416 255.767 230.688C256.255 230.96 256.635 231.344 256.907 231.84C257.179 232.328 257.315 232.892 257.315 233.532ZM255.887 233.1C255.879 232.596 255.699 232.192 255.347 231.888C254.995 231.584 254.559 231.432 254.039 231.432C253.567 231.432 253.163 231.584 252.827 231.888C252.491 232.184 252.291 232.588 252.227 233.1H255.887ZM258.206 233.664C258.206 233 258.342 232.412 258.614 231.9C258.894 231.388 259.27 230.992 259.742 230.712C260.222 230.424 260.754 230.28 261.338 230.28C261.77 230.28 262.194 230.376 262.61 230.568C263.034 230.752 263.37 231 263.618 231.312V228.12H264.998V237H263.618V236.004C263.394 236.324 263.082 236.588 262.682 236.796C262.29 237.004 261.838 237.108 261.326 237.108C260.75 237.108 260.222 236.964 259.742 236.676C259.27 236.38 258.894 235.972 258.614 235.452C258.342 234.924 258.206 234.328 258.206 233.664ZM263.618 233.688C263.618 233.232 263.522 232.836 263.33 232.5C263.146 232.164 262.902 231.908 262.598 231.732C262.294 231.556 261.966 231.468 261.614 231.468C261.262 231.468 260.934 231.556 260.63 231.732C260.326 231.9 260.078 232.152 259.886 232.488C259.702 232.816 259.61 233.208 259.61 233.664C259.61 234.12 259.702 234.52 259.886 234.864C260.078 235.208 260.326 235.472 260.63 235.656C260.942 235.832 261.27 235.92 261.614 235.92C261.966 235.92 262.294 235.832 262.598 235.656C262.902 235.48 263.146 235.224 263.33 234.888C263.522 234.544 263.618 234.144 263.618 233.688Z" fill="white"/>
<rect x="322" y="265" width="128" height="161" rx="10" fill="#FC5F5F" fill-opacity="0.67"/>
<path d="M342.832 279.88C344.016 279.88 345.051 280.109 345.936 280.568C346.832 281.016 347.52 281.667 348 282.52C348.491 283.363 348.736 284.349 348.736 285.48C348.736 286.611 348.491 287.592 348 288.424C347.52 289.256 346.832 289.896 345.936 290.344C345.051 290.781 344.016 291 342.832 291H339.2V279.88H342.832ZM342.832 289.512C344.133 289.512 345.131 289.16 345.824 288.456C346.517 287.752 346.864 286.76 346.864 285.48C346.864 284.189 346.517 283.181 345.824 282.456C345.131 281.731 344.133 281.368 342.832 281.368H341.024V289.512H342.832ZM349.936 286.552C349.936 285.667 350.117 284.883 350.48 284.2C350.853 283.517 351.354 282.989 351.984 282.616C352.624 282.232 353.328 282.04 354.096 282.04C354.789 282.04 355.392 282.179 355.904 282.456C356.426 282.723 356.842 283.059 357.152 283.464V282.184H358.992V291H357.152V289.688C356.842 290.104 356.421 290.451 355.888 290.728C355.354 291.005 354.746 291.144 354.064 291.144C353.306 291.144 352.613 290.952 351.984 290.568C351.354 290.173 350.853 289.629 350.48 288.936C350.117 288.232 349.936 287.437 349.936 286.552ZM357.152 286.584C357.152 285.976 357.024 285.448 356.768 285C356.522 284.552 356.197 284.211 355.792 283.976C355.386 283.741 354.949 283.624 354.48 283.624C354.01 283.624 353.573 283.741 353.168 283.976C352.762 284.2 352.432 284.536 352.176 284.984C351.93 285.421 351.808 285.944 351.808 286.552C351.808 287.16 351.93 287.693 352.176 288.152C352.432 288.611 352.762 288.963 353.168 289.208C353.584 289.443 354.021 289.56 354.48 289.56C354.949 289.56 355.386 289.443 355.792 289.208C356.197 288.973 356.522 288.632 356.768 288.184C357.024 287.725 357.152 287.192 357.152 286.584ZM362.316 281.016C361.985 281.016 361.708 280.904 361.484 280.68C361.26 280.456 361.148 280.179 361.148 279.848C361.148 279.517 361.26 279.24 361.484 279.016C361.708 278.792 361.985 278.68 362.316 278.68C362.636 278.68 362.908 278.792 363.132 279.016C363.356 279.24 363.468 279.517 363.468 279.848C363.468 280.179 363.356 280.456 363.132 280.68C362.908 280.904 362.636 281.016 362.316 281.016ZM363.212 282.184V291H361.388V282.184H363.212ZM367.43 279.16V291H365.606V279.16H367.43ZM377.761 282.184L372.353 295.144H370.465L372.257 290.856L368.785 282.184H370.817L373.297 288.904L375.873 282.184H377.761ZM390.478 279.88V281.368H387.518V291H385.694V281.368H382.718V279.88H390.478ZM400.405 286.376C400.405 286.707 400.384 287.005 400.341 287.272H393.605C393.658 287.976 393.92 288.541 394.389 288.968C394.858 289.395 395.434 289.608 396.117 289.608C397.098 289.608 397.792 289.197 398.197 288.376H400.165C399.898 289.187 399.413 289.853 398.709 290.376C398.016 290.888 397.152 291.144 396.117 291.144C395.274 291.144 394.517 290.957 393.845 290.584C393.184 290.2 392.661 289.667 392.277 288.984C391.904 288.291 391.717 287.491 391.717 286.584C391.717 285.677 391.898 284.883 392.261 284.2C392.634 283.507 393.152 282.973 393.813 282.6C394.485 282.227 395.253 282.04 396.117 282.04C396.949 282.04 397.69 282.221 398.341 282.584C398.992 282.947 399.498 283.459 399.861 284.12C400.224 284.771 400.405 285.523 400.405 286.376ZM398.501 285.8C398.49 285.128 398.25 284.589 397.781 284.184C397.312 283.779 396.73 283.576 396.037 283.576C395.408 283.576 394.869 283.779 394.421 284.184C393.973 284.579 393.706 285.117 393.621 285.8H398.501ZM405.4 291.144C404.707 291.144 404.083 291.021 403.528 290.776C402.984 290.52 402.552 290.179 402.232 289.752C401.912 289.315 401.741 288.829 401.72 288.296H403.608C403.64 288.669 403.816 288.984 404.136 289.24C404.467 289.485 404.877 289.608 405.368 289.608C405.88 289.608 406.275 289.512 406.552 289.32C406.84 289.117 406.984 288.861 406.984 288.552C406.984 288.221 406.824 287.976 406.504 287.816C406.195 287.656 405.699 287.48 405.016 287.288C404.355 287.107 403.816 286.931 403.4 286.76C402.984 286.589 402.621 286.328 402.312 285.976C402.013 285.624 401.864 285.16 401.864 284.584C401.864 284.115 402.003 283.688 402.28 283.304C402.557 282.909 402.952 282.6 403.464 282.376C403.987 282.152 404.584 282.04 405.256 282.04C406.259 282.04 407.064 282.296 407.672 282.808C408.291 283.309 408.621 283.997 408.664 284.872H406.84C406.808 284.477 406.648 284.163 406.36 283.928C406.072 283.693 405.683 283.576 405.192 283.576C404.712 283.576 404.344 283.667 404.088 283.848C403.832 284.029 403.704 284.269 403.704 284.568C403.704 284.803 403.789 285 403.96 285.16C404.131 285.32 404.339 285.448 404.584 285.544C404.829 285.629 405.192 285.741 405.672 285.88C406.312 286.051 406.835 286.227 407.24 286.408C407.656 286.579 408.013 286.835 408.312 287.176C408.611 287.517 408.765 287.971 408.776 288.536C408.776 289.037 408.637 289.485 408.36 289.88C408.083 290.275 407.688 290.584 407.176 290.808C406.675 291.032 406.083 291.144 405.4 291.144ZM412.875 283.672V288.552C412.875 288.883 412.95 289.123 413.099 289.272C413.259 289.411 413.526 289.48 413.899 289.48H415.019V291H413.579C412.758 291 412.128 290.808 411.691 290.424C411.254 290.04 411.035 289.416 411.035 288.552V283.672H409.995V282.184H411.035V279.992H412.875V282.184H415.019V283.672H412.875Z" fill="white"/>
<path d="M338.63 309.25V307.794H341.542V318H339.932V309.25H338.63ZM343.735 312.764C343.735 311.149 344.005 309.889 344.547 308.984C345.097 308.069 346.04 307.612 347.375 307.612C348.709 307.612 349.647 308.069 350.189 308.984C350.739 309.889 351.015 311.149 351.015 312.764C351.015 314.397 350.739 315.676 350.189 316.6C349.647 317.515 348.709 317.972 347.375 317.972C346.04 317.972 345.097 317.515 344.547 316.6C344.005 315.676 343.735 314.397 343.735 312.764ZM349.447 312.764C349.447 312.008 349.395 311.369 349.293 310.846C349.199 310.323 349.003 309.899 348.705 309.572C348.406 309.236 347.963 309.068 347.375 309.068C346.787 309.068 346.343 309.236 346.045 309.572C345.746 309.899 345.545 310.323 345.443 310.846C345.349 311.369 345.303 312.008 345.303 312.764C345.303 313.548 345.349 314.206 345.443 314.738C345.536 315.27 345.732 315.699 346.031 316.026C346.339 316.353 346.787 316.516 347.375 316.516C347.963 316.516 348.406 316.353 348.705 316.026C349.013 315.699 349.213 315.27 349.307 314.738C349.4 314.206 349.447 313.548 349.447 312.764ZM358.779 316.012H354.705L354.005 318H352.339L355.825 308.256H357.673L361.159 318H359.479L358.779 316.012ZM358.331 314.71L356.749 310.188L355.153 314.71H358.331ZM372.923 308.27V318H371.327V311.336L368.359 318H367.253L364.271 311.336V318H362.675V308.27H364.397L367.813 315.9L371.215 308.27H372.923ZM384.579 312.26V313.604H378.825V312.26H384.579ZM390.064 309.25V307.794H392.976V318H391.366V309.25H390.064ZM396.05 315.83C396.946 315.055 397.651 314.421 398.164 313.926C398.687 313.422 399.121 312.899 399.466 312.358C399.811 311.817 399.984 311.275 399.984 310.734C399.984 310.174 399.849 309.735 399.578 309.418C399.317 309.101 398.901 308.942 398.332 308.942C397.781 308.942 397.352 309.119 397.044 309.474C396.745 309.819 396.587 310.286 396.568 310.874H395.028C395.056 309.81 395.373 308.998 395.98 308.438C396.596 307.869 397.375 307.584 398.318 307.584C399.335 307.584 400.129 307.864 400.698 308.424C401.277 308.984 401.566 309.731 401.566 310.664C401.566 311.336 401.393 311.985 401.048 312.61C400.712 313.226 400.306 313.781 399.83 314.276C399.363 314.761 398.766 315.326 398.038 315.97L397.408 316.53H401.846V317.86H395.042V316.698L396.05 315.83ZM413.899 311.168C413.899 311.663 413.782 312.129 413.549 312.568C413.316 313.007 412.942 313.366 412.429 313.646C411.916 313.917 411.258 314.052 410.455 314.052H408.691V318H407.095V308.27H410.455C411.202 308.27 411.832 308.401 412.345 308.662C412.868 308.914 413.255 309.259 413.507 309.698C413.768 310.137 413.899 310.627 413.899 311.168ZM410.455 312.75C411.062 312.75 411.514 312.615 411.813 312.344C412.112 312.064 412.261 311.672 412.261 311.168C412.261 310.104 411.659 309.572 410.455 309.572H408.691V312.75H410.455ZM425.669 308.27V318H424.073V311.336L421.105 318H419.999L417.017 311.336V318H415.421V308.27H417.143L420.559 315.9L423.961 308.27H425.669Z" fill="white"/>
<path d="M347.044 394H345.448L340.646 386.734V394H339.05V384.256H340.646L345.448 391.508V384.256H347.044V394ZM352.486 394.126C351.758 394.126 351.1 393.963 350.512 393.636C349.924 393.3 349.462 392.833 349.126 392.236C348.79 391.629 348.622 390.929 348.622 390.136C348.622 389.352 348.795 388.657 349.14 388.05C349.485 387.443 349.957 386.977 350.554 386.65C351.151 386.323 351.819 386.16 352.556 386.16C353.293 386.16 353.961 386.323 354.558 386.65C355.155 386.977 355.627 387.443 355.972 388.05C356.317 388.657 356.49 389.352 356.49 390.136C356.49 390.92 356.313 391.615 355.958 392.222C355.603 392.829 355.118 393.3 354.502 393.636C353.895 393.963 353.223 394.126 352.486 394.126ZM352.486 392.74C352.897 392.74 353.279 392.642 353.634 392.446C353.998 392.25 354.292 391.956 354.516 391.564C354.74 391.172 354.852 390.696 354.852 390.136C354.852 389.576 354.745 389.105 354.53 388.722C354.315 388.33 354.031 388.036 353.676 387.84C353.321 387.644 352.939 387.546 352.528 387.546C352.117 387.546 351.735 387.644 351.38 387.84C351.035 388.036 350.759 388.33 350.554 388.722C350.349 389.105 350.246 389.576 350.246 390.136C350.246 390.967 350.456 391.611 350.876 392.068C351.305 392.516 351.842 392.74 352.486 392.74ZM366.758 394L364.518 390.108H363.3V394H361.704V384.27H365.064C365.811 384.27 366.441 384.401 366.954 384.662C367.477 384.923 367.864 385.273 368.116 385.712C368.378 386.151 368.508 386.641 368.508 387.182C368.508 387.817 368.322 388.395 367.948 388.918C367.584 389.431 367.02 389.781 366.254 389.968L368.662 394H366.758ZM363.3 388.834H365.064C365.662 388.834 366.11 388.685 366.408 388.386C366.716 388.087 366.87 387.686 366.87 387.182C366.87 386.678 366.721 386.286 366.422 386.006C366.124 385.717 365.671 385.572 365.064 385.572H363.3V388.834ZM377.62 389.954C377.62 390.243 377.601 390.505 377.564 390.738H371.67C371.717 391.354 371.945 391.849 372.356 392.222C372.767 392.595 373.271 392.782 373.868 392.782C374.727 392.782 375.333 392.423 375.688 391.704H377.41C377.177 392.413 376.752 392.997 376.136 393.454C375.529 393.902 374.773 394.126 373.868 394.126C373.131 394.126 372.468 393.963 371.88 393.636C371.301 393.3 370.844 392.833 370.508 392.236C370.181 391.629 370.018 390.929 370.018 390.136C370.018 389.343 370.177 388.647 370.494 388.05C370.821 387.443 371.273 386.977 371.852 386.65C372.44 386.323 373.112 386.16 373.868 386.16C374.596 386.16 375.245 386.319 375.814 386.636C376.383 386.953 376.827 387.401 377.144 387.98C377.461 388.549 377.62 389.207 377.62 389.954ZM375.954 389.45C375.945 388.862 375.735 388.391 375.324 388.036C374.913 387.681 374.405 387.504 373.798 387.504C373.247 387.504 372.776 387.681 372.384 388.036C371.992 388.381 371.759 388.853 371.684 389.45H375.954ZM381.991 394.126C381.384 394.126 380.838 394.019 380.353 393.804C379.877 393.58 379.499 393.281 379.219 392.908C378.939 392.525 378.789 392.101 378.771 391.634H380.423C380.451 391.961 380.605 392.236 380.885 392.46C381.174 392.675 381.533 392.782 381.963 392.782C382.411 392.782 382.756 392.698 382.999 392.53C383.251 392.353 383.377 392.129 383.377 391.858C383.377 391.569 383.237 391.354 382.957 391.214C382.686 391.074 382.252 390.92 381.655 390.752C381.076 390.593 380.605 390.439 380.241 390.29C379.877 390.141 379.559 389.912 379.289 389.604C379.027 389.296 378.897 388.89 378.897 388.386C378.897 387.975 379.018 387.602 379.261 387.266C379.503 386.921 379.849 386.65 380.297 386.454C380.754 386.258 381.277 386.16 381.865 386.16C382.742 386.16 383.447 386.384 383.979 386.832C384.52 387.271 384.809 387.873 384.847 388.638H383.251C383.223 388.293 383.083 388.017 382.831 387.812C382.579 387.607 382.238 387.504 381.809 387.504C381.389 387.504 381.067 387.583 380.843 387.742C380.619 387.901 380.507 388.111 380.507 388.372C380.507 388.577 380.581 388.75 380.731 388.89C380.88 389.03 381.062 389.142 381.277 389.226C381.491 389.301 381.809 389.399 382.229 389.52C382.789 389.669 383.246 389.823 383.601 389.982C383.965 390.131 384.277 390.355 384.539 390.654C384.8 390.953 384.935 391.349 384.945 391.844C384.945 392.283 384.823 392.675 384.581 393.02C384.338 393.365 383.993 393.636 383.545 393.832C383.106 394.028 382.588 394.126 381.991 394.126ZM393.655 386.286V394H392.059V393.09C391.807 393.407 391.476 393.659 391.065 393.846C390.664 394.023 390.234 394.112 389.777 394.112C389.17 394.112 388.624 393.986 388.139 393.734C387.663 393.482 387.285 393.109 387.005 392.614C386.734 392.119 386.599 391.522 386.599 390.822V386.286H388.181V390.584C388.181 391.275 388.354 391.807 388.699 392.18C389.044 392.544 389.516 392.726 390.113 392.726C390.71 392.726 391.182 392.544 391.527 392.18C391.882 391.807 392.059 391.275 392.059 390.584V386.286H393.655ZM397.357 383.64V394H395.761V383.64H397.357ZM401.314 387.588V391.858C401.314 392.147 401.38 392.357 401.51 392.488C401.65 392.609 401.884 392.67 402.21 392.67H403.19V394H401.93C401.212 394 400.661 393.832 400.278 393.496C399.896 393.16 399.704 392.614 399.704 391.858V387.588H398.794V386.286H399.704V384.368H401.314V386.286H403.19V387.588H401.314Z" fill="white"/>
<path d="M344.288 404.66V405.776H342.068V413H340.7V405.776H338.468V404.66H344.288ZM351.733 409.532C351.733 409.78 351.717 410.004 351.685 410.204H346.633C346.673 410.732 346.869 411.156 347.221 411.476C347.573 411.796 348.005 411.956 348.517 411.956C349.253 411.956 349.773 411.648 350.077 411.032H351.553C351.353 411.64 350.989 412.14 350.461 412.532C349.941 412.916 349.293 413.108 348.517 413.108C347.885 413.108 347.317 412.968 346.813 412.688C346.317 412.4 345.925 412 345.637 411.488C345.357 410.968 345.217 410.368 345.217 409.688C345.217 409.008 345.353 408.412 345.625 407.9C345.905 407.38 346.293 406.98 346.789 406.7C347.293 406.42 347.869 406.28 348.517 406.28C349.141 406.28 349.697 406.416 350.185 406.688C350.673 406.96 351.053 407.344 351.325 407.84C351.597 408.328 351.733 408.892 351.733 409.532ZM350.305 409.1C350.297 408.596 350.117 408.192 349.765 407.888C349.413 407.584 348.977 407.432 348.457 407.432C347.985 407.432 347.581 407.584 347.245 407.888C346.909 408.184 346.709 408.588 346.645 409.1H350.305ZM355.48 413.108C354.96 413.108 354.492 413.016 354.076 412.832C353.668 412.64 353.344 412.384 353.104 412.064C352.864 411.736 352.736 411.372 352.72 410.972H354.136C354.16 411.252 354.292 411.488 354.532 411.68C354.78 411.864 355.088 411.956 355.456 411.956C355.84 411.956 356.136 411.884 356.344 411.74C356.56 411.588 356.668 411.396 356.668 411.164C356.668 410.916 356.548 410.732 356.308 410.612C356.076 410.492 355.704 410.36 355.192 410.216C354.696 410.08 354.292 409.948 353.98 409.82C353.668 409.692 353.396 409.496 353.164 409.232C352.94 408.968 352.828 408.62 352.828 408.188C352.828 407.836 352.932 407.516 353.14 407.228C353.348 406.932 353.644 406.7 354.028 406.532C354.42 406.364 354.868 406.28 355.372 406.28C356.124 406.28 356.728 406.472 357.184 406.856C357.648 407.232 357.896 407.748 357.928 408.404H356.56C356.536 408.108 356.416 407.872 356.2 407.696C355.984 407.52 355.692 407.432 355.324 407.432C354.964 407.432 354.688 407.5 354.496 407.636C354.304 407.772 354.208 407.952 354.208 408.176C354.208 408.352 354.272 408.5 354.4 408.62C354.528 408.74 354.684 408.836 354.868 408.908C355.052 408.972 355.324 409.056 355.684 409.16C356.164 409.288 356.556 409.42 356.86 409.556C357.172 409.684 357.44 409.876 357.664 410.132C357.888 410.388 358.004 410.728 358.012 411.152C358.012 411.528 357.908 411.864 357.7 412.16C357.492 412.456 357.196 412.688 356.812 412.856C356.436 413.024 355.992 413.108 355.48 413.108ZM361.086 407.504V411.164C361.086 411.412 361.142 411.592 361.254 411.704C361.374 411.808 361.574 411.86 361.854 411.86H362.694V413H361.614C360.998 413 360.526 412.856 360.198 412.568C359.87 412.28 359.706 411.812 359.706 411.164V407.504H358.926V406.388H359.706V404.744H361.086V406.388H362.694V407.504H361.086ZM368.44 405.764V408.212H371.32V409.328H368.44V411.884H371.68V413H367.072V404.648H371.68V405.764H368.44ZM376.197 409.652L378.333 413H376.785L375.357 410.756L374.013 413H372.585L374.721 409.748L372.585 406.388H374.133L375.561 408.632L376.905 406.388H378.333L376.197 409.652ZM380.721 407.36C380.953 407.056 381.269 406.8 381.669 406.592C382.069 406.384 382.521 406.28 383.025 406.28C383.601 406.28 384.125 406.424 384.597 406.712C385.077 406.992 385.453 407.388 385.725 407.9C385.997 408.412 386.133 409 386.133 409.664C386.133 410.328 385.997 410.924 385.725 411.452C385.453 411.972 385.077 412.38 384.597 412.676C384.125 412.964 383.601 413.108 383.025 413.108C382.521 413.108 382.073 413.008 381.681 412.808C381.289 412.6 380.969 412.344 380.721 412.04V416.144H379.353V406.388H380.721V407.36ZM384.741 409.664C384.741 409.208 384.645 408.816 384.453 408.488C384.269 408.152 384.021 407.9 383.709 407.732C383.405 407.556 383.077 407.468 382.725 407.468C382.381 407.468 382.053 407.556 381.741 407.732C381.437 407.908 381.189 408.164 380.997 408.5C380.813 408.836 380.721 409.232 380.721 409.688C380.721 410.144 380.813 410.544 380.997 410.888C381.189 411.224 381.437 411.48 381.741 411.656C382.053 411.832 382.381 411.92 382.725 411.92C383.077 411.92 383.405 411.832 383.709 411.656C384.021 411.472 384.269 411.208 384.453 410.864C384.645 410.52 384.741 410.12 384.741 409.664ZM388.182 405.512C387.934 405.512 387.726 405.428 387.558 405.26C387.39 405.092 387.306 404.884 387.306 404.636C387.306 404.388 387.39 404.18 387.558 404.012C387.726 403.844 387.934 403.76 388.182 403.76C388.422 403.76 388.626 403.844 388.794 404.012C388.962 404.18 389.046 404.388 389.046 404.636C389.046 404.884 388.962 405.092 388.794 405.26C388.626 405.428 388.422 405.512 388.182 405.512ZM388.854 406.388V413H387.486V406.388H388.854ZM392.018 407.348C392.218 407.012 392.482 406.752 392.81 406.568C393.146 406.376 393.542 406.28 393.998 406.28V407.696H393.65C393.114 407.696 392.706 407.832 392.426 408.104C392.154 408.376 392.018 408.848 392.018 409.52V413H390.65V406.388H392.018V407.348ZM401.315 409.532C401.315 409.78 401.299 410.004 401.267 410.204H396.215C396.255 410.732 396.451 411.156 396.803 411.476C397.155 411.796 397.587 411.956 398.099 411.956C398.835 411.956 399.355 411.648 399.659 411.032H401.135C400.935 411.64 400.571 412.14 400.043 412.532C399.523 412.916 398.875 413.108 398.099 413.108C397.467 413.108 396.899 412.968 396.395 412.688C395.899 412.4 395.507 412 395.219 411.488C394.939 410.968 394.799 410.368 394.799 409.688C394.799 409.008 394.935 408.412 395.207 407.9C395.487 407.38 395.875 406.98 396.371 406.7C396.875 406.42 397.451 406.28 398.099 406.28C398.723 406.28 399.279 406.416 399.767 406.688C400.255 406.96 400.635 407.344 400.907 407.84C401.179 408.328 401.315 408.892 401.315 409.532ZM399.887 409.1C399.879 408.596 399.699 408.192 399.347 407.888C398.995 407.584 398.559 407.432 398.039 407.432C397.567 407.432 397.163 407.584 396.827 407.888C396.491 408.184 396.291 408.588 396.227 409.1H399.887ZM402.206 409.664C402.206 409 402.342 408.412 402.614 407.9C402.894 407.388 403.27 406.992 403.742 406.712C404.222 406.424 404.754 406.28 405.338 406.28C405.77 406.28 406.194 406.376 406.61 406.568C407.034 406.752 407.37 407 407.618 407.312V404.12H408.998V413H407.618V412.004C407.394 412.324 407.082 412.588 406.682 412.796C406.29 413.004 405.838 413.108 405.326 413.108C404.75 413.108 404.222 412.964 403.742 412.676C403.27 412.38 402.894 411.972 402.614 411.452C402.342 410.924 402.206 410.328 402.206 409.664ZM407.618 409.688C407.618 409.232 407.522 408.836 407.33 408.5C407.146 408.164 406.902 407.908 406.598 407.732C406.294 407.556 405.966 407.468 405.614 407.468C405.262 407.468 404.934 407.556 404.63 407.732C404.326 407.9 404.078 408.152 403.886 408.488C403.702 408.816 403.61 409.208 403.61 409.664C403.61 410.12 403.702 410.52 403.886 410.864C404.078 411.208 404.326 411.472 404.63 411.656C404.942 411.832 405.27 411.92 405.614 411.92C405.966 411.92 406.294 411.832 406.598 411.656C406.902 411.48 407.146 411.224 407.33 410.888C407.522 410.544 407.618 410.144 407.618 409.688Z" fill="white"/>
<rect x="610" y="176" width="128" height="251" rx="10" fill="#F8BA1C" fill-opacity="0.68"/>
<path d="M630.832 190.88C632.016 190.88 633.051 191.109 633.936 191.568C634.832 192.016 635.52 192.667 636 193.52C636.491 194.363 636.736 195.349 636.736 196.48C636.736 197.611 636.491 198.592 636 199.424C635.52 200.256 634.832 200.896 633.936 201.344C633.051 201.781 632.016 202 630.832 202H627.2V190.88H630.832ZM630.832 200.512C632.133 200.512 633.131 200.16 633.824 199.456C634.517 198.752 634.864 197.76 634.864 196.48C634.864 195.189 634.517 194.181 633.824 193.456C633.131 192.731 632.133 192.368 630.832 192.368H629.024V200.512H630.832ZM637.936 197.552C637.936 196.667 638.117 195.883 638.48 195.2C638.853 194.517 639.354 193.989 639.984 193.616C640.624 193.232 641.328 193.04 642.096 193.04C642.789 193.04 643.392 193.179 643.904 193.456C644.426 193.723 644.842 194.059 645.152 194.464V193.184H646.992V202H645.152V200.688C644.842 201.104 644.421 201.451 643.888 201.728C643.354 202.005 642.746 202.144 642.064 202.144C641.306 202.144 640.613 201.952 639.984 201.568C639.354 201.173 638.853 200.629 638.48 199.936C638.117 199.232 637.936 198.437 637.936 197.552ZM645.152 197.584C645.152 196.976 645.024 196.448 644.768 196C644.522 195.552 644.197 195.211 643.792 194.976C643.386 194.741 642.949 194.624 642.48 194.624C642.01 194.624 641.573 194.741 641.168 194.976C640.762 195.2 640.432 195.536 640.176 195.984C639.93 196.421 639.808 196.944 639.808 197.552C639.808 198.16 639.93 198.693 640.176 199.152C640.432 199.611 640.762 199.963 641.168 200.208C641.584 200.443 642.021 200.56 642.48 200.56C642.949 200.56 643.386 200.443 643.792 200.208C644.197 199.973 644.522 199.632 644.768 199.184C645.024 198.725 645.152 198.192 645.152 197.584ZM650.316 192.016C649.985 192.016 649.708 191.904 649.484 191.68C649.26 191.456 649.148 191.179 649.148 190.848C649.148 190.517 649.26 190.24 649.484 190.016C649.708 189.792 649.985 189.68 650.316 189.68C650.636 189.68 650.908 189.792 651.132 190.016C651.356 190.24 651.468 190.517 651.468 190.848C651.468 191.179 651.356 191.456 651.132 191.68C650.908 191.904 650.636 192.016 650.316 192.016ZM651.212 193.184V202H649.388V193.184H651.212ZM655.43 190.16V202H653.606V190.16H655.43ZM665.761 193.184L660.353 206.144H658.465L660.257 201.856L656.785 193.184H658.817L661.297 199.904L663.873 193.184H665.761ZM678.478 190.88V192.368H675.518V202H673.694V192.368H670.718V190.88H678.478ZM688.405 197.376C688.405 197.707 688.384 198.005 688.341 198.272H681.605C681.658 198.976 681.92 199.541 682.389 199.968C682.858 200.395 683.434 200.608 684.117 200.608C685.098 200.608 685.792 200.197 686.197 199.376H688.165C687.898 200.187 687.413 200.853 686.709 201.376C686.016 201.888 685.152 202.144 684.117 202.144C683.274 202.144 682.517 201.957 681.845 201.584C681.184 201.2 680.661 200.667 680.277 199.984C679.904 199.291 679.717 198.491 679.717 197.584C679.717 196.677 679.898 195.883 680.261 195.2C680.634 194.507 681.152 193.973 681.813 193.6C682.485 193.227 683.253 193.04 684.117 193.04C684.949 193.04 685.69 193.221 686.341 193.584C686.992 193.947 687.498 194.459 687.861 195.12C688.224 195.771 688.405 196.523 688.405 197.376ZM686.501 196.8C686.49 196.128 686.25 195.589 685.781 195.184C685.312 194.779 684.73 194.576 684.037 194.576C683.408 194.576 682.869 194.779 682.421 195.184C681.973 195.579 681.706 196.117 681.621 196.8H686.501ZM693.4 202.144C692.707 202.144 692.083 202.021 691.528 201.776C690.984 201.52 690.552 201.179 690.232 200.752C689.912 200.315 689.741 199.829 689.72 199.296H691.608C691.64 199.669 691.816 199.984 692.136 200.24C692.467 200.485 692.877 200.608 693.368 200.608C693.88 200.608 694.275 200.512 694.552 200.32C694.84 200.117 694.984 199.861 694.984 199.552C694.984 199.221 694.824 198.976 694.504 198.816C694.195 198.656 693.699 198.48 693.016 198.288C692.355 198.107 691.816 197.931 691.4 197.76C690.984 197.589 690.621 197.328 690.312 196.976C690.013 196.624 689.864 196.16 689.864 195.584C689.864 195.115 690.003 194.688 690.28 194.304C690.557 193.909 690.952 193.6 691.464 193.376C691.987 193.152 692.584 193.04 693.256 193.04C694.259 193.04 695.064 193.296 695.672 193.808C696.291 194.309 696.621 194.997 696.664 195.872H694.84C694.808 195.477 694.648 195.163 694.36 194.928C694.072 194.693 693.683 194.576 693.192 194.576C692.712 194.576 692.344 194.667 692.088 194.848C691.832 195.029 691.704 195.269 691.704 195.568C691.704 195.803 691.789 196 691.96 196.16C692.131 196.32 692.339 196.448 692.584 196.544C692.829 196.629 693.192 196.741 693.672 196.88C694.312 197.051 694.835 197.227 695.24 197.408C695.656 197.579 696.013 197.835 696.312 198.176C696.611 198.517 696.765 198.971 696.776 199.536C696.776 200.037 696.637 200.485 696.36 200.88C696.083 201.275 695.688 201.584 695.176 201.808C694.675 202.032 694.083 202.144 693.4 202.144ZM700.875 194.672V199.552C700.875 199.883 700.95 200.123 701.099 200.272C701.259 200.411 701.526 200.48 701.899 200.48H703.019V202H701.579C700.758 202 700.128 201.808 699.691 201.424C699.254 201.04 699.035 200.416 699.035 199.552V194.672H697.995V193.184H699.035V190.992H700.875V193.184H703.019V194.672H700.875Z" fill="white"/>
<path d="M628.828 226.228C628.921 226.695 629.122 227.049 629.43 227.292C629.738 227.535 630.153 227.656 630.676 227.656C631.339 227.656 631.824 227.395 632.132 226.872C632.44 226.349 632.594 225.458 632.594 224.198C632.37 224.515 632.053 224.763 631.642 224.94C631.241 225.108 630.802 225.192 630.326 225.192C629.719 225.192 629.169 225.071 628.674 224.828C628.179 224.576 627.787 224.207 627.498 223.722C627.218 223.227 627.078 222.63 627.078 221.93C627.078 220.903 627.377 220.087 627.974 219.48C628.581 218.864 629.411 218.556 630.466 218.556C631.735 218.556 632.636 218.981 633.168 219.83C633.709 220.67 633.98 221.963 633.98 223.708C633.98 224.912 633.877 225.897 633.672 226.662C633.476 227.427 633.131 228.006 632.636 228.398C632.141 228.79 631.455 228.986 630.578 228.986C629.579 228.986 628.809 228.725 628.268 228.202C627.727 227.679 627.423 227.021 627.358 226.228H628.828ZM630.606 223.848C631.166 223.848 631.605 223.675 631.922 223.33C632.249 222.975 632.412 222.509 632.412 221.93C632.412 221.286 632.239 220.787 631.894 220.432C631.558 220.068 631.096 219.886 630.508 219.886C629.92 219.886 629.453 220.073 629.108 220.446C628.772 220.81 628.604 221.291 628.604 221.888C628.604 222.457 628.767 222.929 629.094 223.302C629.43 223.666 629.934 223.848 630.606 223.848ZM641.803 227.012H637.729L637.029 229H635.363L638.849 219.256H640.697L644.183 229H642.503L641.803 227.012ZM641.355 225.71L639.773 221.188L638.177 225.71H641.355ZM655.946 219.27V229H654.35V222.336L651.382 229H650.276L647.294 222.336V229H645.698V219.27H647.42L650.836 226.9L654.238 219.27H655.946ZM667.603 223.26V224.604H661.849V223.26H667.603ZM673.087 220.25V218.794H675.999V229H674.389V220.25H673.087ZM679.074 226.83C679.97 226.055 680.674 225.421 681.188 224.926C681.71 224.422 682.144 223.899 682.49 223.358C682.835 222.817 683.008 222.275 683.008 221.734C683.008 221.174 682.872 220.735 682.602 220.418C682.34 220.101 681.925 219.942 681.356 219.942C680.805 219.942 680.376 220.119 680.068 220.474C679.769 220.819 679.61 221.286 679.592 221.874H678.052C678.08 220.81 678.397 219.998 679.004 219.438C679.62 218.869 680.399 218.584 681.342 218.584C682.359 218.584 683.152 218.864 683.722 219.424C684.3 219.984 684.59 220.731 684.59 221.664C684.59 222.336 684.417 222.985 684.072 223.61C683.736 224.226 683.33 224.781 682.854 225.276C682.387 225.761 681.79 226.326 681.062 226.97L680.432 227.53H684.87V228.86H678.066V227.698L679.074 226.83ZM696.922 222.168C696.922 222.663 696.806 223.129 696.572 223.568C696.339 224.007 695.966 224.366 695.452 224.646C694.939 224.917 694.281 225.052 693.478 225.052H691.714V229H690.118V219.27H693.478C694.225 219.27 694.855 219.401 695.368 219.662C695.891 219.914 696.278 220.259 696.53 220.698C696.792 221.137 696.922 221.627 696.922 222.168ZM693.478 223.75C694.085 223.75 694.538 223.615 694.836 223.344C695.135 223.064 695.284 222.672 695.284 222.168C695.284 221.104 694.682 220.572 693.478 220.572H691.714V223.75H693.478ZM708.693 219.27V229H707.097V222.336L704.129 229H703.023L700.041 222.336V229H698.445V219.27H700.167L703.583 226.9L706.985 219.27H708.693Z" fill="white"/>
<path d="M630.704 414.084C629.928 414.084 629.212 413.904 628.556 413.544C627.908 413.176 627.392 412.668 627.008 412.02C626.632 411.364 626.444 410.628 626.444 409.812C626.444 408.996 626.632 408.264 627.008 407.616C627.392 406.968 627.908 406.464 628.556 406.104C629.212 405.736 629.928 405.552 630.704 405.552C631.488 405.552 632.204 405.736 632.852 406.104C633.508 406.464 634.024 406.968 634.4 407.616C634.776 408.264 634.964 408.996 634.964 409.812C634.964 410.628 634.776 411.364 634.4 412.02C634.024 412.668 633.508 413.176 632.852 413.544C632.204 413.904 631.488 414.084 630.704 414.084ZM630.704 412.896C631.256 412.896 631.748 412.772 632.18 412.524C632.612 412.268 632.948 411.908 633.188 411.444C633.436 410.972 633.56 410.428 633.56 409.812C633.56 409.196 633.436 408.656 633.188 408.192C632.948 407.728 632.612 407.372 632.18 407.124C631.748 406.876 631.256 406.752 630.704 406.752C630.152 406.752 629.66 406.876 629.228 407.124C628.796 407.372 628.456 407.728 628.208 408.192C627.968 408.656 627.848 409.196 627.848 409.812C627.848 410.428 627.968 410.972 628.208 411.444C628.456 411.908 628.796 412.268 629.228 412.524C629.66 412.772 630.152 412.896 630.704 412.896ZM639.646 407.28C640.166 407.28 640.63 407.388 641.038 407.604C641.454 407.82 641.778 408.14 642.01 408.564C642.242 408.988 642.358 409.5 642.358 410.1V414H641.002V410.304C641.002 409.712 640.854 409.26 640.558 408.948C640.262 408.628 639.858 408.468 639.346 408.468C638.834 408.468 638.426 408.628 638.122 408.948C637.826 409.26 637.678 409.712 637.678 410.304V414H636.31V407.388H637.678V408.144C637.902 407.872 638.186 407.66 638.53 407.508C638.882 407.356 639.254 407.28 639.646 407.28ZM646.767 407.28C647.279 407.28 647.731 407.384 648.123 407.592C648.523 407.792 648.835 408.044 649.059 408.348V407.388H650.439V414.108C650.439 414.716 650.311 415.256 650.055 415.728C649.799 416.208 649.427 416.584 648.939 416.856C648.459 417.128 647.883 417.264 647.211 417.264C646.315 417.264 645.571 417.052 644.979 416.628C644.387 416.212 644.051 415.644 643.971 414.924H645.327C645.431 415.268 645.651 415.544 645.987 415.752C646.331 415.968 646.739 416.076 647.211 416.076C647.763 416.076 648.207 415.908 648.543 415.572C648.887 415.236 649.059 414.748 649.059 414.108V413.004C648.827 413.316 648.511 413.58 648.111 413.796C647.719 414.004 647.271 414.108 646.767 414.108C646.191 414.108 645.663 413.964 645.183 413.676C644.711 413.38 644.335 412.972 644.055 412.452C643.783 411.924 643.647 411.328 643.647 410.664C643.647 410 643.783 409.412 644.055 408.9C644.335 408.388 644.711 407.992 645.183 407.712C645.663 407.424 646.191 407.28 646.767 407.28ZM649.059 410.688C649.059 410.232 648.963 409.836 648.771 409.5C648.587 409.164 648.343 408.908 648.039 408.732C647.735 408.556 647.407 408.468 647.055 408.468C646.703 408.468 646.375 408.556 646.071 408.732C645.767 408.9 645.519 409.152 645.327 409.488C645.143 409.816 645.051 410.208 645.051 410.664C645.051 411.12 645.143 411.52 645.327 411.864C645.519 412.208 645.767 412.472 646.071 412.656C646.383 412.832 646.711 412.92 647.055 412.92C647.407 412.92 647.735 412.832 648.039 412.656C648.343 412.48 648.587 412.224 648.771 411.888C648.963 411.544 649.059 411.144 649.059 410.688ZM655.104 414.108C654.48 414.108 653.916 413.968 653.412 413.688C652.908 413.4 652.512 413 652.224 412.488C651.936 411.968 651.792 411.368 651.792 410.688C651.792 410.016 651.94 409.42 652.236 408.9C652.532 408.38 652.936 407.98 653.448 407.7C653.96 407.42 654.532 407.28 655.164 407.28C655.796 407.28 656.368 407.42 656.88 407.7C657.392 407.98 657.796 408.38 658.092 408.9C658.388 409.42 658.536 410.016 658.536 410.688C658.536 411.36 658.384 411.956 658.08 412.476C657.776 412.996 657.36 413.4 656.832 413.688C656.312 413.968 655.736 414.108 655.104 414.108ZM655.104 412.92C655.456 412.92 655.784 412.836 656.088 412.668C656.4 412.5 656.652 412.248 656.844 411.912C657.036 411.576 657.132 411.168 657.132 410.688C657.132 410.208 657.04 409.804 656.856 409.476C656.672 409.14 656.428 408.888 656.124 408.72C655.82 408.552 655.492 408.468 655.14 408.468C654.788 408.468 654.46 408.552 654.156 408.72C653.86 408.888 653.624 409.14 653.448 409.476C653.272 409.804 653.184 410.208 653.184 410.688C653.184 411.4 653.364 411.952 653.724 412.344C654.092 412.728 654.552 412.92 655.104 412.92ZM660.584 406.512C660.336 406.512 660.128 406.428 659.96 406.26C659.792 406.092 659.708 405.884 659.708 405.636C659.708 405.388 659.792 405.18 659.96 405.012C660.128 404.844 660.336 404.76 660.584 404.76C660.824 404.76 661.028 404.844 661.196 405.012C661.364 405.18 661.448 405.388 661.448 405.636C661.448 405.884 661.364 406.092 661.196 406.26C661.028 406.428 660.824 406.512 660.584 406.512ZM661.256 407.388V414H659.888V407.388H661.256ZM666.388 407.28C666.908 407.28 667.372 407.388 667.78 407.604C668.196 407.82 668.52 408.14 668.752 408.564C668.984 408.988 669.1 409.5 669.1 410.1V414H667.744V410.304C667.744 409.712 667.596 409.26 667.3 408.948C667.004 408.628 666.6 408.468 666.088 408.468C665.576 408.468 665.168 408.628 664.864 408.948C664.568 409.26 664.42 409.712 664.42 410.304V414H663.052V407.388H664.42V408.144C664.644 407.872 664.928 407.66 665.272 407.508C665.624 407.356 665.996 407.28 666.388 407.28ZM673.509 407.28C674.021 407.28 674.473 407.384 674.865 407.592C675.265 407.792 675.577 408.044 675.801 408.348V407.388H677.181V414.108C677.181 414.716 677.053 415.256 676.797 415.728C676.541 416.208 676.169 416.584 675.681 416.856C675.201 417.128 674.625 417.264 673.953 417.264C673.057 417.264 672.313 417.052 671.721 416.628C671.129 416.212 670.793 415.644 670.713 414.924H672.069C672.173 415.268 672.393 415.544 672.729 415.752C673.073 415.968 673.481 416.076 673.953 416.076C674.505 416.076 674.949 415.908 675.285 415.572C675.629 415.236 675.801 414.748 675.801 414.108V413.004C675.569 413.316 675.253 413.58 674.853 413.796C674.461 414.004 674.013 414.108 673.509 414.108C672.933 414.108 672.405 413.964 671.925 413.676C671.453 413.38 671.077 412.972 670.797 412.452C670.525 411.924 670.389 411.328 670.389 410.664C670.389 410 670.525 409.412 670.797 408.9C671.077 408.388 671.453 407.992 671.925 407.712C672.405 407.424 672.933 407.28 673.509 407.28ZM675.801 410.688C675.801 410.232 675.705 409.836 675.513 409.5C675.329 409.164 675.085 408.908 674.781 408.732C674.477 408.556 674.149 408.468 673.797 408.468C673.445 408.468 673.117 408.556 672.813 408.732C672.509 408.9 672.261 409.152 672.069 409.488C671.885 409.816 671.793 410.208 671.793 410.664C671.793 411.12 671.885 411.52 672.069 411.864C672.261 412.208 672.509 412.472 672.813 412.656C673.125 412.832 673.453 412.92 673.797 412.92C674.149 412.92 674.477 412.832 674.781 412.656C675.085 412.48 675.329 412.224 675.513 411.888C675.705 411.544 675.801 411.144 675.801 410.688ZM687.483 405.66V406.776H685.263V414H683.895V406.776H681.663V405.66H687.483ZM694.929 410.532C694.929 410.78 694.913 411.004 694.881 411.204H689.829C689.869 411.732 690.065 412.156 690.417 412.476C690.769 412.796 691.201 412.956 691.713 412.956C692.449 412.956 692.969 412.648 693.273 412.032H694.749C694.549 412.64 694.185 413.14 693.657 413.532C693.137 413.916 692.489 414.108 691.713 414.108C691.081 414.108 690.513 413.968 690.009 413.688C689.513 413.4 689.121 413 688.833 412.488C688.553 411.968 688.413 411.368 688.413 410.688C688.413 410.008 688.549 409.412 688.821 408.9C689.101 408.38 689.489 407.98 689.985 407.7C690.489 407.42 691.065 407.28 691.713 407.28C692.337 407.28 692.893 407.416 693.381 407.688C693.869 407.96 694.249 408.344 694.521 408.84C694.793 409.328 694.929 409.892 694.929 410.532ZM693.501 410.1C693.493 409.596 693.313 409.192 692.961 408.888C692.609 408.584 692.173 408.432 691.653 408.432C691.181 408.432 690.777 408.584 690.441 408.888C690.105 409.184 689.905 409.588 689.841 410.1H693.501ZM698.675 414.108C698.155 414.108 697.687 414.016 697.271 413.832C696.863 413.64 696.539 413.384 696.299 413.064C696.059 412.736 695.931 412.372 695.915 411.972H697.331C697.355 412.252 697.487 412.488 697.727 412.68C697.975 412.864 698.283 412.956 698.651 412.956C699.035 412.956 699.331 412.884 699.539 412.74C699.755 412.588 699.863 412.396 699.863 412.164C699.863 411.916 699.743 411.732 699.503 411.612C699.271 411.492 698.899 411.36 698.387 411.216C697.891 411.08 697.487 410.948 697.175 410.82C696.863 410.692 696.591 410.496 696.359 410.232C696.135 409.968 696.023 409.62 696.023 409.188C696.023 408.836 696.127 408.516 696.335 408.228C696.543 407.932 696.839 407.7 697.223 407.532C697.615 407.364 698.063 407.28 698.567 407.28C699.319 407.28 699.923 407.472 700.379 407.856C700.843 408.232 701.091 408.748 701.123 409.404H699.755C699.731 409.108 699.611 408.872 699.395 408.696C699.179 408.52 698.887 408.432 698.519 408.432C698.159 408.432 697.883 408.5 697.691 408.636C697.499 408.772 697.403 408.952 697.403 409.176C697.403 409.352 697.467 409.5 697.595 409.62C697.723 409.74 697.879 409.836 698.063 409.908C698.247 409.972 698.519 410.056 698.879 410.16C699.359 410.288 699.751 410.42 700.055 410.556C700.367 410.684 700.635 410.876 700.859 411.132C701.083 411.388 701.199 411.728 701.207 412.152C701.207 412.528 701.103 412.864 700.895 413.16C700.687 413.456 700.391 413.688 700.007 413.856C699.631 414.024 699.187 414.108 698.675 414.108ZM704.281 408.504V412.164C704.281 412.412 704.337 412.592 704.449 412.704C704.569 412.808 704.769 412.86 705.049 412.86H705.889V414H704.809C704.193 414 703.721 413.856 703.393 413.568C703.065 413.28 702.901 412.812 702.901 412.164V408.504H702.121V407.388H702.901V405.744H704.281V407.388H705.889V408.504H704.281Z" fill="white"/>
</svg>
