<svg width="23" height="24" viewBox="0 0 23 24" fill="none" xmlns="http://www.w3.org/2000/svg">
<path d="M11.503 13C12.0321 13 12.461 12.5523 12.461 12C12.461 11.4477 12.0321 11 11.503 11C10.9738 11 10.5449 11.4477 10.5449 12C10.5449 12.5523 10.9738 13 11.503 13Z" stroke="#555555" stroke-width="2" stroke-linecap="round" stroke-linejoin="round"/>
<path d="M11.503 6C12.0321 6 12.461 5.55228 12.461 5C12.461 4.44772 12.0321 4 11.503 4C10.9738 4 10.5449 4.44772 10.5449 5C10.5449 5.55228 10.9738 6 11.503 6Z" stroke="#555555" stroke-width="2" stroke-linecap="round" stroke-linejoin="round"/>
<path d="M11.503 20C12.0321 20 12.461 19.5523 12.461 19C12.461 18.4477 12.0321 18 11.503 18C10.9738 18 10.5449 18.4477 10.5449 19C10.5449 19.5523 10.9738 20 11.503 20Z" stroke="#555555" stroke-width="2" stroke-linecap="round" stroke-linejoin="round"/>
</svg>
