<svg width="24" height="24" viewBox="0 0 24 24" fill="none" xmlns="http://www.w3.org/2000/svg">
<path d="M9.73311 10.87C9.6373 10.86 9.52234 10.86 9.41696 10.87C7.13685 10.79 5.32617 8.84 5.32617 6.44C5.32617 3.99 7.22307 2 9.57982 2C11.927 2 13.8335 3.99 13.8335 6.44C13.8239 8.84 12.0132 10.79 9.73311 10.87Z" stroke="#292D32" stroke-width="1.5" stroke-linecap="round" stroke-linejoin="round"/>
<path d="M16.6792 4C18.5378 4 20.0323 5.57 20.0323 7.5C20.0323 9.39 18.5953 10.93 16.8038 11C16.7271 10.99 16.6409 10.99 16.5547 11" stroke="#292D32" stroke-width="1.5" stroke-linecap="round" stroke-linejoin="round"/>
<path d="M4.94292 14.56C2.62449 16.18 2.62449 18.82 4.94292 20.43C7.5775 22.27 11.8982 22.27 14.5328 20.43C16.8512 18.81 16.8512 16.17 14.5328 14.56C11.9078 12.73 7.58708 12.73 4.94292 14.56Z" stroke="#292D32" stroke-width="1.5" stroke-linecap="round" stroke-linejoin="round"/>
<path d="M18.5283 20C19.2181 19.85 19.8696 19.56 20.4061 19.13C21.9006 17.96 21.9006 16.03 20.4061 14.86C19.8791 14.44 19.2373 14.16 18.5571 14" stroke="#292D32" stroke-width="1.5" stroke-linecap="round" stroke-linejoin="round"/>
</svg>
