<svg width="18" height="18" viewBox="0 0 18 18" fill="none" xmlns="http://www.w3.org/2000/svg">
<path d="M9.01379 2.73096C6.73103 2.73096 4.87586 4.58613 4.87586 6.86889V8.86199C4.87586 9.28268 4.69654 9.92406 4.48275 10.2827L3.68965 11.5999C3.19999 12.4137 3.53792 13.3172 4.43448 13.6206C7.40689 14.6137 10.6138 14.6137 13.5862 13.6206C14.4207 13.3448 14.7862 12.3585 14.331 11.5999L13.5379 10.2827C13.331 9.92406 13.1517 9.28268 13.1517 8.86199V6.86889C13.1517 4.59303 11.2896 2.73096 9.01379 2.73096Z" stroke="#5C5C5C" stroke-width="1.5" stroke-miterlimit="10" stroke-linecap="round"/>
<path d="M10.29 2.93098C10.0762 2.86891 9.85552 2.82063 9.62794 2.79305C8.96587 2.71029 8.33138 2.75856 7.73828 2.93098C7.93828 2.42063 8.43483 2.06201 9.01414 2.06201C9.59345 2.06201 10.09 2.42063 10.29 2.93098Z" stroke="#5C5C5C" stroke-width="1.5" stroke-miterlimit="10" stroke-linecap="round" stroke-linejoin="round"/>
<path d="M11.0832 13.8691C11.0832 15.0071 10.1522 15.9381 9.01428 15.9381C8.44876 15.9381 7.92462 15.7036 7.55221 15.3312C7.17979 14.9588 6.94531 14.4347 6.94531 13.8691" stroke="#5C5C5C" stroke-width="1.5" stroke-miterlimit="10"/>
</svg>
